<?xml version="1.0" encoding="UTF-8"?>
<svg version="1.1" xmlns="http://www.w3.org/2000/svg" width="102" height="116">
<path d="M0 0 C0.75458496 0.00612305 1.50916992 0.01224609 2.28662109 0.01855469 C7.23853686 0.1576234 10.89657131 0.91610749 15.2890625 3.2890625 C24.84365726 7.98647196 35.87793489 9.03493895 46.3359375 10.04296875 C49.625 10.4375 49.625 10.4375 50.625 11.4375 C50.72870804 12.98026808 50.76351716 14.52773944 50.77026367 16.07397461 C50.77664352 17.06268051 50.78302338 18.05138641 50.78959656 19.0700531 C50.79070938 20.14908401 50.7918222 21.22811493 50.79296875 22.33984375 C50.79796135 24.00014366 50.79796135 24.00014366 50.80305481 25.69398499 C50.80813232 28.0470437 50.81046288 30.40010965 50.81030273 32.75317383 C50.81247174 36.32841199 50.83057009 39.90333286 50.84960938 43.47851562 C50.85254674 45.76562395 50.85452924 48.05273373 50.85546875 50.33984375 C50.86265427 51.40065659 50.86983978 52.46146942 50.87724304 53.5544281 C50.8290745 69.4780332 46.40911352 83.25018127 35.2421875 94.9296875 C25.32398243 104.43340042 13.0229346 115.95233669 -1.375 116.4375 C-9.92710956 113.79331606 -17.39553405 107.8843502 -24.375 102.4375 C-25.76912109 101.38949219 -25.76912109 101.38949219 -27.19140625 100.3203125 C-27.91199219 99.69898437 -28.63257812 99.07765625 -29.375 98.4375 C-29.375 97.7775 -29.375 97.1175 -29.375 96.4375 C-30.86 95.9425 -30.86 95.9425 -32.375 95.4375 C-36.375 90.98035714 -36.375 90.98035714 -36.375 88.4375 C-37.035 88.4375 -37.695 88.4375 -38.375 88.4375 C-39.7421875 86.671875 -39.7421875 86.671875 -41.25 84.1875 C-41.74242187 83.39859375 -42.23484375 82.6096875 -42.7421875 81.796875 C-47.40411006 72.20535968 -48.95401822 63.62832073 -48.765625 53.015625 C-48.75996521 51.78962585 -48.75430542 50.56362671 -48.74847412 49.30047607 C-48.72629034 45.42906721 -48.67612623 41.55862365 -48.625 37.6875 C-48.60491182 35.04428431 -48.58666514 32.40105394 -48.5703125 29.7578125 C-48.52648464 23.31738541 -48.4597547 16.8775117 -48.375 10.4375 C-47.40240234 10.32140381 -46.42980469 10.20530762 -45.42773438 10.08569336 C-38.09411595 9.16718207 -30.97444513 8.10764777 -23.875 6 C-23.1428125 5.79568359 -22.410625 5.59136719 -21.65625 5.38085938 C-18.21834543 4.39553137 -15.12359164 3.32047473 -11.8671875 1.8046875 C-7.73022906 0.1850729 -4.39439678 -0.06121155 0 0 Z " fill="#272D3E" transform="translate(50.375,-0.4375)"/>
<path d="M0 0 C1.66508865 0.72830707 3.31046449 1.50274273 4.9375 2.3125 C13.96901808 6.49577344 23.12590639 8.87670773 32.953125 10.11328125 C33.63584473 10.20049438 34.31856445 10.28770752 35.02197266 10.37756348 C36.68082631 10.5889148 38.34034698 10.79502027 40 11 C40.1282446 17.56106348 40.21494683 24.12179642 40.2746582 30.68383789 C40.29958666 32.90954667 40.33354219 35.13517546 40.37719727 37.3605957 C40.97506567 68.65373128 40.97506567 68.65373128 29.8125 80.9375 C29.34199219 81.46126221 28.87148437 81.98502441 28.38671875 82.5246582 C15.43269455 96.57622423 15.43269455 96.57622423 8.95703125 97.1953125 C8.24933594 97.17210938 7.54164062 97.14890625 6.8125 97.125 C5.554375 97.08375 4.29625 97.0425 3 97 C3.99 96.67 4.98 96.34 6 96 C6.33 78.51 6.66 61.02 7 43 C11 41 11 41 14 41 C14 55.52 14 70.04 14 85 C15.65 83.68 17.3 82.36 19 81 C19.99 80.34 20.98 79.68 22 79 C22.41428346 77.06923522 22.41428346 77.06923522 22.29296875 74.8671875 C22.28330078 74.06152344 22.27363281 73.25585938 22.26367188 72.42578125 C22.23853516 71.58402344 22.21339844 70.74226563 22.1875 69.875 C22.17396484 69.02550781 22.16042969 68.17601563 22.14648438 67.30078125 C22.11108219 65.20025163 22.05727401 63.10004707 22 61 C22.66 61.33 23.32 61.66 24 62 C24.99 61.01 24.99 61.01 26 60 C26.495 64.95 26.495 64.95 27 70 C30.68682203 65.57581356 33.2178518 62.36459554 33.31884766 56.50683594 C33.33871735 55.62622498 33.35858704 54.74561401 33.37905884 53.83831787 C33.39061005 52.89651672 33.40216125 51.95471558 33.4140625 50.984375 C33.43342865 50.01340881 33.4527948 49.04244263 33.4727478 48.04205322 C33.53246509 44.94479114 33.5788978 41.84749174 33.625 38.75 C33.66318698 36.64842141 33.70223914 34.54685835 33.7421875 32.4453125 C33.83816031 27.29700132 33.9222206 22.14861688 34 17 C33.0114502 16.89115479 32.02290039 16.78230957 31.00439453 16.67016602 C23.91226337 15.84025012 17.44533989 14.87610257 10.875 11.9375 C6.74329563 10.12043862 3.46855863 8.89371173 -1 8 C-1.33 15.59 -1.66 23.18 -2 31 C-2.66 31 -3.32 31 -4 31 C-4.33 23.41 -4.66 15.82 -5 8 C-11.74130043 9.94282302 -11.74130043 9.94282302 -18.25 12.5 C-24.4610664 15.32185469 -32.19646754 17 -39 17 C-38.95562604 22.81719629 -38.88556176 28.63332996 -38.79248047 34.44995117 C-38.7643905 36.42545072 -38.74311686 38.40106015 -38.72900391 40.37670898 C-38.70740767 43.2295713 -38.66067366 46.08112891 -38.609375 48.93359375 C-38.60814636 49.80584091 -38.60691772 50.67808807 -38.60565186 51.57676697 C-38.2755743 65.64105462 -29.58145238 75.41854762 -20 85 C-19.67 70.48 -19.34 55.96 -19 41 C-17.02 41.66 -15.04 42.32 -13 43 C-13.0030162 43.60277267 -13.00603241 44.20554535 -13.00914001 44.82658386 C-13.03371784 51.1050899 -13.00959111 57.38207398 -12.95727539 63.66040039 C-12.94414219 66.00281158 -12.94339533 68.3453265 -12.95532227 70.68774414 C-12.97032299 74.05719278 -12.94066968 77.42375654 -12.90234375 80.79296875 C-12.91659897 81.83897751 -12.93085419 82.88498627 -12.94554138 83.96269226 C-12.92604935 84.94333145 -12.90655731 85.92397064 -12.88647461 86.93432617 C-12.884254 87.79370285 -12.88203339 88.65307953 -12.87974548 89.53849792 C-11.87199256 93.09685908 -11.87199256 93.09685908 -5 97 C-5 77.86 -5 58.72 -5 39 C-4.67 39 -4.34 39 -4 39 C-3.505 40.98 -3.505 40.98 -3 43 C-2.34 42.67 -1.68 42.34 -1 42 C-0.85707403 49.75959354 -0.71471568 57.51919735 -0.57275391 65.27880859 C-0.52438246 67.91911048 -0.47588057 70.55940998 -0.42724609 73.19970703 C-0.35740499 76.99250683 -0.28803139 80.78531494 -0.21875 84.578125 C-0.19687622 85.76053772 -0.17500244 86.94295044 -0.15246582 88.16119385 C-0.13244507 89.26203308 -0.11242432 90.36287231 -0.09179688 91.49707031 C-0.07403198 92.46525696 -0.05626709 93.4334436 -0.03796387 94.43096924 C-0.0056089 96.62044368 0 98.81028651 0 101 C-10.72577787 101.91283216 -19.07960725 95.66159615 -27 89 C-37.23044704 79.13336686 -44.92064367 68.07826227 -45.34057617 53.45849609 C-45.34010931 51.48007964 -45.32364986 49.5016161 -45.29296875 47.5234375 C-45.28872391 46.47217682 -45.28447906 45.42091614 -45.28010559 44.33779907 C-45.26346139 41.01659317 -45.22583614 37.69601906 -45.1875 34.375 C-45.17243473 32.10808175 -45.15874957 29.84115388 -45.14648438 27.57421875 C-45.11360482 22.04926764 -45.06355009 16.52467898 -45 11 C-44.16190796 10.84278976 -44.16190796 10.84278976 -43.30688477 10.68240356 C-40.72403706 10.19373779 -38.14331784 9.69458328 -35.5625 9.1953125 C-34.68400391 9.03071533 -33.80550781 8.86611816 -32.90039062 8.6965332 C-24.02456656 6.96476495 -14.74043775 4.35562354 -6.875 -0.2421875 C-4.22991879 -1.31124115 -2.70379438 -0.81320228 0 0 Z " fill="#192038" transform="translate(54,5)"/>
<path d="M0 0 C0.75458496 0.00612305 1.50916992 0.01224609 2.28662109 0.01855469 C7.23853686 0.1576234 10.89657131 0.91610749 15.2890625 3.2890625 C24.84365726 7.98647196 35.87793489 9.03493895 46.3359375 10.04296875 C49.625 10.4375 49.625 10.4375 50.625 11.4375 C50.72870804 12.98026808 50.76351716 14.52773944 50.77026367 16.07397461 C50.77664352 17.06268051 50.78302338 18.05138641 50.78959656 19.0700531 C50.79070938 20.14908401 50.7918222 21.22811493 50.79296875 22.33984375 C50.79796135 24.00014366 50.79796135 24.00014366 50.80305481 25.69398499 C50.80813232 28.0470437 50.81046288 30.40010965 50.81030273 32.75317383 C50.81247174 36.32841199 50.83057009 39.90333286 50.84960938 43.47851562 C50.85254674 45.76562395 50.85452924 48.05273373 50.85546875 50.33984375 C50.86265427 51.40065659 50.86983978 52.46146942 50.87724304 53.5544281 C50.8290745 69.4780332 46.40911352 83.25018127 35.2421875 94.9296875 C25.32398243 104.43340042 13.0229346 115.95233669 -1.375 116.4375 C-9.92710956 113.79331606 -17.39553405 107.8843502 -24.375 102.4375 C-25.76912109 101.38949219 -25.76912109 101.38949219 -27.19140625 100.3203125 C-27.91199219 99.69898437 -28.63257812 99.07765625 -29.375 98.4375 C-29.375 97.7775 -29.375 97.1175 -29.375 96.4375 C-30.86 95.9425 -30.86 95.9425 -32.375 95.4375 C-36.375 90.98035714 -36.375 90.98035714 -36.375 88.4375 C-37.035 88.4375 -37.695 88.4375 -38.375 88.4375 C-39.7421875 86.671875 -39.7421875 86.671875 -41.25 84.1875 C-41.74242187 83.39859375 -42.23484375 82.6096875 -42.7421875 81.796875 C-47.40411006 72.20535968 -48.95401822 63.62832073 -48.765625 53.015625 C-48.75996521 51.78962585 -48.75430542 50.56362671 -48.74847412 49.30047607 C-48.72629034 45.42906721 -48.67612623 41.55862365 -48.625 37.6875 C-48.60491182 35.04428431 -48.58666514 32.40105394 -48.5703125 29.7578125 C-48.52648464 23.31738541 -48.4597547 16.8775117 -48.375 10.4375 C-47.40240234 10.32140381 -46.42980469 10.20530762 -45.42773438 10.08569336 C-38.09411595 9.16718207 -30.97444513 8.10764777 -23.875 6 C-23.1428125 5.79568359 -22.410625 5.59136719 -21.65625 5.38085938 C-18.21834543 4.39553137 -15.12359164 3.32047473 -11.8671875 1.8046875 C-7.73022906 0.1850729 -4.39439678 -0.06121155 0 0 Z M-9.4375 7.75 C-18.08365606 11.41520838 -26.41028593 13.99659344 -35.69921875 15.51171875 C-37.29963013 15.77408325 -37.29963013 15.77408325 -38.93237305 16.04174805 C-40.14147339 16.23764526 -40.14147339 16.23764526 -41.375 16.4375 C-41.47725665 23.05357509 -41.54682119 29.66944296 -41.59472656 36.28613281 C-41.61471832 38.53230403 -41.64192098 40.77842403 -41.67675781 43.02441406 C-41.99498585 64.08362273 -39.44883665 77.25111049 -24.78515625 93.08984375 C-20.98796927 96.78856234 -16.8637257 99.64263305 -12.375 102.4375 C-10.81072266 103.43716797 -10.81072266 103.43716797 -9.21484375 104.45703125 C-4.18991753 108.02673971 -4.18991753 108.02673971 1.56640625 109.34375 C16.91267327 102.58789811 32.44351962 91.63227728 40.15942383 76.41040039 C44.6845544 64.27331861 44.18869961 52.30549256 43.9375 39.5 C43.91236539 37.25588445 43.88956142 35.01174152 43.86914062 32.76757812 C43.81460369 27.3236116 43.73139424 21.88068734 43.625 16.4375 C41.68185913 16.14528564 41.68185913 16.14528564 39.69946289 15.84716797 C37.97799344 15.58322887 36.25655976 15.31905635 34.53515625 15.0546875 C33.68393188 14.92731201 32.83270752 14.79993652 31.95568848 14.66870117 C22.12062214 13.14759479 13.49642714 10.21302302 4.78125 5.390625 C-0.41921526 3.09186862 -4.65539976 5.65406029 -9.4375 7.75 Z " fill="#BBA270" transform="translate(50.375,-0.4375)"/>
<path d="M0 0 C0 9.24 0 18.48 0 28 C-2.31 27.01 -4.62 26.02 -7 25 C-7 20.38 -7 15.76 -7 11 C-9.206875 11.66 -11.41375 12.32 -13.6875 13 C-17.97678327 14.2827763 -21.53841665 15.10710478 -26 15 C-25.93066728 19.5537426 -25.84248679 24.10660645 -25.73754883 28.65966797 C-25.70449138 30.20546643 -25.67640097 31.75138004 -25.65356445 33.29736328 C-26.1310007 46.01520122 -26.1310007 46.01520122 -21 57 C-20.67 45.78 -20.34 34.56 -20 23 C-12.90770463 24.77307384 -6.53877325 28.73061338 0 32 C0 50.48 0 68.96 0 88 C-0.33 88 -0.66 88 -1 88 C-1.02578125 87.39671875 -1.0515625 86.7934375 -1.078125 86.171875 C-1.13484375 85.37265625 -1.1915625 84.5734375 -1.25 83.75 C-1.29640625 82.96109375 -1.3428125 82.1721875 -1.390625 81.359375 C-1.78997623 78.84038224 -1.78997623 78.84038224 -4 77.39648438 C-6.87652082 73.94971578 -6.60286511 70.5915897 -6.609375 66.296875 C-6.63417938 65.04019012 -6.63417938 65.04019012 -6.65948486 63.75811768 C-6.70797499 61.08867063 -6.72933745 58.41979326 -6.75 55.75 C-6.77815893 53.93747132 -6.80808625 52.1249692 -6.83984375 50.3125 C-6.91373394 45.87504691 -6.96330214 41.43791023 -7 37 C-8.98 36.01 -10.96 35.02 -13 34 C-13 48.85 -13 63.7 -13 79 C-22.35730421 70.97945353 -29.05454085 63.83637745 -33 52 C-33.08589303 50.60344541 -33.11772715 49.20314223 -33.11352539 47.80395508 C-33.11344986 46.96331009 -33.11337433 46.1226651 -33.11329651 45.25654602 C-33.10813522 44.35333115 -33.10297394 43.45011627 -33.09765625 42.51953125 C-33.0962413 41.59154221 -33.09482635 40.66355316 -33.09336853 39.70744324 C-33.08776937 36.74242942 -33.07521704 33.77749101 -33.0625 30.8125 C-33.05748489 28.80273547 -33.052922 26.79296975 -33.04882812 24.78320312 C-33.03780021 19.85543968 -33.02053617 14.92773263 -33 10 C-31.87142578 9.74895508 -30.74285156 9.49791016 -29.58007812 9.23925781 C-21.99570119 7.52324664 -14.66514471 5.83412751 -7.5 2.75 C-1.03485577 0 -1.03485577 0 0 0 Z " fill="#C7AC64" transform="translate(48,12)"/>
<path d="M0 0 C1.71896484 0.61488281 1.71896484 0.61488281 3.47265625 1.2421875 C5.0025638 1.78657178 6.532514 2.33083624 8.0625 2.875 C8.81466797 3.14441406 9.56683594 3.41382813 10.34179688 3.69140625 C11.08623047 3.95566406 11.83066406 4.21992188 12.59765625 4.4921875 C13.27320557 4.73308105 13.94875488 4.97397461 14.64477539 5.22216797 C20.39660909 7.1217577 25.94316394 8.40732679 31.9375 9.125 C32.62134766 9.21136719 33.30519531 9.29773437 34.00976562 9.38671875 C35.67257046 9.59602285 37.33620513 9.79871722 39 10 C39.1282446 16.56106348 39.21494683 23.12179642 39.2746582 29.68383789 C39.29958666 31.90954667 39.33354219 34.13517546 39.37719727 36.3605957 C39.97506567 67.65373128 39.97506567 67.65373128 28.8125 79.9375 C28.34199219 80.46126221 27.87148437 80.98502441 27.38671875 81.5246582 C14.43269455 95.57622423 14.43269455 95.57622423 7.95703125 96.1953125 C7.24933594 96.17210938 6.54164062 96.14890625 5.8125 96.125 C4.554375 96.08375 3.29625 96.0425 2 96 C3.485 95.505 3.485 95.505 5 95 C5.33 77.51 5.66 60.02 6 42 C10 40 10 40 13 40 C13 54.52 13 69.04 13 84 C14.65 82.68 16.3 81.36 18 80 C19.485 79.01 19.485 79.01 21 78 C21.41428346 76.06923522 21.41428346 76.06923522 21.29296875 73.8671875 C21.28330078 73.06152344 21.27363281 72.25585938 21.26367188 71.42578125 C21.23853516 70.58402344 21.21339844 69.74226563 21.1875 68.875 C21.17396484 68.02550781 21.16042969 67.17601563 21.14648438 66.30078125 C21.11108219 64.20025163 21.05727401 62.10004707 21 60 C21.66 60.33 22.32 60.66 23 61 C23.66 60.34 24.32 59.68 25 59 C25.33 62.3 25.66 65.6 26 69 C29.68682203 64.57581356 32.2178518 61.36459554 32.31884766 55.50683594 C32.33871735 54.62622498 32.35858704 53.74561401 32.37905884 52.83831787 C32.39061005 51.89651672 32.40216125 50.95471558 32.4140625 49.984375 C32.43342865 49.01340881 32.4527948 48.04244263 32.4727478 47.04205322 C32.53246509 43.94479114 32.5788978 40.84749174 32.625 37.75 C32.66318698 35.64842141 32.70223914 33.54685835 32.7421875 31.4453125 C32.83816031 26.29700132 32.9222206 21.14861688 33 16 C32.01217529 15.89042969 31.02435059 15.78085937 30.0065918 15.66796875 C22.91838786 14.8345582 16.40387178 13.87518944 9.8125 11 C7.99685547 10.2265625 7.99685547 10.2265625 6.14453125 9.4375 C3.73498497 8.33599313 1.35376267 7.21484525 -1 6 C-0.67 4.02 -0.34 2.04 0 0 Z " fill="#172244" transform="translate(55,6)"/>
<path d="M0 0 C0.12683815 7.02901938 0.21436744 14.0577434 0.2746582 21.08764648 C0.29979315 23.47870919 0.33390633 25.86969514 0.37719727 28.26049805 C0.43789061 31.69859764 0.46622072 35.13568096 0.48828125 38.57421875 C0.51408768 39.64210129 0.5398941 40.70998383 0.56648254 41.81022644 C0.56960711 50.08928452 0.56960711 50.08928452 -2.40551758 53.21411133 C-5 55 -5 55 -7 55 C-7 40.48 -7 25.96 -7 11 C-9.31 11.66 -11.62 12.32 -14 13 C-14 29.17 -14 45.34 -14 62 C-16.31 63.32 -18.62 64.64 -21 66 C-21 47.19 -21 28.38 -21 9 C-3 0 -3 0 0 0 Z " fill="#EED890" transform="translate(75,35)"/>
<path d="M0 0 C4.1005179 1.3668393 7.96243851 2.79529313 11.9375 4.4375 C16.90750869 6.37312422 21.70308861 7.6894067 26.94140625 8.66015625 C27.96675476 8.85744324 27.96675476 8.85744324 29.01281738 9.05871582 C30.67423047 9.37763158 32.3369815 9.68956453 34 10 C34.14926354 16.0830635 34.25764672 22.16504155 34.32958984 28.24951172 C34.35960591 30.31545603 34.40043279 32.38127459 34.45263672 34.44677734 C34.96300275 55.17164099 34.96300275 55.17164099 29.39697266 62.60791016 C28 64 28 64 27 64 C27 47.83 27 31.66 27 15 C21.06 14.01 21.06 14.01 15 13 C12.30532379 12.07813709 9.62291588 11.10969518 7 10 C7 14.95 7 19.9 7 25 C4.69 25.99 2.38 26.98 0 28 C0 18.76 0 9.52 0 0 Z " fill="#E0D29E" transform="translate(54,12)"/>
<path d="M0 0 C0 9.24 0 18.48 0 28 C-2.31 27.01 -4.62 26.02 -7 25 C-7 20.38 -7 15.76 -7 11 C-9.206875 11.66 -11.41375 12.32 -13.6875 13 C-17.97678327 14.2827763 -21.53841665 15.10710478 -26 15 C-25.90590803 19.57187518 -25.79969581 24.14325521 -25.68261719 28.71459961 C-25.64451516 30.26725716 -25.60963072 31.81999733 -25.578125 33.37280273 C-25.53206315 35.61471947 -25.47414122 37.85607645 -25.4140625 40.09765625 C-25.40251129 40.78336197 -25.39096008 41.46906769 -25.37905884 42.17555237 C-25.23992746 46.79809177 -24.41282413 50.64007431 -23 55 C-24.485 55.495 -24.485 55.495 -26 56 C-26.66 53.36 -27.32 50.72 -28 48 C-28.99 48 -29.98 48 -31 48 C-30.67 51.3 -30.34 54.6 -30 58 C-32.38079554 54.42880669 -33.12612106 51.9983138 -33.11352539 47.80395508 C-33.11344986 46.96331009 -33.11337433 46.1226651 -33.11329651 45.25654602 C-33.10813522 44.35333115 -33.10297394 43.45011627 -33.09765625 42.51953125 C-33.0962413 41.59154221 -33.09482635 40.66355316 -33.09336853 39.70744324 C-33.08776937 36.74242942 -33.07521704 33.77749101 -33.0625 30.8125 C-33.05748489 28.80273547 -33.052922 26.79296975 -33.04882812 24.78320312 C-33.03780021 19.85543968 -33.02053617 14.92773263 -33 10 C-31.87142578 9.74895508 -30.74285156 9.49791016 -29.58007812 9.23925781 C-21.99570119 7.52324664 -14.66514471 5.83412751 -7.5 2.75 C-1.03485577 0 -1.03485577 0 0 0 Z " fill="#BE9D55" transform="translate(48,12)"/>
<path d="M0 0 C0.82177734 0.36351563 0.82177734 0.36351563 1.66015625 0.734375 C12.9989832 5.52802542 24.42508256 8.22839391 36.62915039 9.40478516 C41.91426884 9.91426884 41.91426884 9.91426884 43 11 C43.09333705 12.59610982 43.11745372 14.19633428 43.11352539 15.79516602 C43.11344986 16.81614883 43.11337433 17.83713165 43.11329651 18.88905334 C43.10813522 19.9994548 43.10297394 21.10985626 43.09765625 22.25390625 C43.0962413 23.38448959 43.09482635 24.51507294 43.09336853 25.67991638 C43.08775019 29.30747065 43.07519458 32.93496424 43.0625 36.5625 C43.05748736 39.01497307 43.05292405 41.4674471 43.04882812 43.91992188 C43.0377748 49.94663545 43.02101884 55.97331339 43 62 C42.67 62 42.34 62 42 62 C41.67 57.38 41.34 52.76 41 48 C38.66924071 48.95865509 38.66924071 48.95865509 37 52 C37 39.79 37 27.58 37 15 C31.72 15 26.44 15 21 15 C17.81120742 14.33216334 15.27182872 13.74457601 12.3125 12.625 C11.66345703 12.40328125 11.01441406 12.1815625 10.34570312 11.953125 C6.85416471 10.74547183 3.41880411 9.39889881 0 8 C0 7.34 0 6.68 0 6 C0.99 6 1.98 6 3 6 C2.2575 5.071875 2.2575 5.071875 1.5 4.125 C0 2 0 2 0 0 Z " fill="#F6EEBA" transform="translate(58,0)"/>
<path d="M0 0 C2.77124036 0.64412614 5.54199445 1.29022748 8.3125 1.9375 C9.49102539 2.21110352 9.49102539 2.21110352 10.69335938 2.49023438 C11.8293457 2.75610352 11.8293457 2.75610352 12.98828125 3.02734375 C13.68477783 3.18968506 14.38127441 3.35202637 15.09887695 3.51928711 C16.7534406 3.93765565 18.38094108 4.46031369 20 5 C20 20.84 20 36.68 20 53 C19.67 53 19.34 53 19 53 C18.67 50.36 18.34 47.72 18 45 C17.01 45.495 17.01 45.495 16 46 C16 51.61 16 57.22 16 63 C15.01 63 14.02 63 13 63 C13.33 46.5 13.66 30 14 13 C8.06 15.64 2.12 18.28 -4 21 C-4.66 19.68 -5.32 18.36 -6 17 C-4.02 16.34 -2.04 15.68 0 15 C0 10.05 0 5.1 0 0 Z " fill="#2E3547" transform="translate(61,22)"/>
<path d="M0 0 C2.64 0 5.28 0 8 0 C8.33 11.22 8.66 22.44 9 34 C9.99 33.01 10.98 32.02 12 31 C15.39862129 37.79724258 14.05048256 50.73865367 12.12890625 57.9296875 C8.75998022 67.1417672 3.3249054 75.44613727 -4 82 C-4.825 82.763125 -5.65 83.52625 -6.5 84.3125 C-9.30576055 86.20638837 -10.68862827 86.37844248 -14 86 C-14.74609375 83.7265625 -14.74609375 83.7265625 -15 81 C-13.41015625 79.1484375 -13.41015625 79.1484375 -11.0625 77.375 C-1.22299243 69.17541036 5.06003688 59.26469965 6.24282837 46.34823608 C6.66712413 38.96670242 6.7033101 31.57916343 6.75 24.1875 C6.77820447 21.93422229 6.80813802 19.68096553 6.83984375 17.42773438 C6.91317329 11.95190506 6.96512679 6.47620228 7 1 C4.69 1 2.38 1 0 1 C0 0.67 0 0.34 0 0 Z " fill="#E2D295" transform="translate(87,15)"/>
<path d="M0 0 C0.02693575 2.12493141 0.04636628 4.24995912 0.0625 6.375 C0.07410156 7.55835938 0.08570312 8.74171875 0.09765625 9.9609375 C0 13 0 13 -1 15 C-6.38556121 15.38468294 -7.71267083 14.64366459 -13 12 C-13 23.55 -13 35.1 -13 47 C-17.67215594 42.32784406 -18.8293858 39.78816628 -19.22705078 33.28955078 C-19.22673852 31.92476372 -19.21570215 30.55994728 -19.1953125 29.1953125 C-19.1924826 28.4713327 -19.18965271 27.74735291 -19.18673706 27.00143433 C-19.17562087 24.7091151 -19.15053312 22.41719937 -19.125 20.125 C-19.1149591 18.56250568 -19.10583519 17.00000518 -19.09765625 15.4375 C-19.07570973 11.62484662 -19.04124013 7.81249152 -19 4 C-16.39688008 3.32900016 -13.79264602 2.66304662 -11.1875 2 C-10.44951172 1.80921875 -9.71152344 1.6184375 -8.95117188 1.421875 C-5.89464659 0.64737086 -3.16626522 0 0 0 Z " fill="#172142" transform="translate(41,23)"/>
<path d="M0 0 C0.89203125 0.00902344 1.7840625 0.01804687 2.703125 0.02734375 C3.37859375 0.03894531 4.0540625 0.05054688 4.75 0.0625 C4.75 1.0525 4.75 2.0425 4.75 3.0625 C5.41 3.7225 6.07 4.3825 6.75 5.0625 C0.81 5.5575 0.81 5.5575 -5.25 6.0625 C-5.25 19.9225 -5.25 33.7825 -5.25 48.0625 C-5.91 48.0625 -6.57 48.0625 -7.25 48.0625 C-7.25 50.3725 -7.25 52.6825 -7.25 55.0625 C-7.91 54.7325 -8.57 54.4025 -9.25 54.0625 C-9.25 53.4025 -9.25 52.7425 -9.25 52.0625 C-9.91 52.0625 -10.57 52.0625 -11.25 52.0625 C-11.30058729 45.12079978 -11.33568579 38.17914685 -11.35986328 31.23730469 C-11.36993924 28.87433089 -11.38360029 26.51136961 -11.40087891 24.1484375 C-11.42505724 20.75778112 -11.43646699 17.36728916 -11.4453125 13.9765625 C-11.45563507 12.91506989 -11.46595764 11.85357727 -11.47659302 10.75991821 C-11.47674408 9.77905243 -11.47689514 8.79818665 -11.47705078 7.78759766 C-11.48371262 6.48853989 -11.48371262 6.48853989 -11.49050903 5.16323853 C-11.25 3.0625 -11.25 3.0625 -9.25 1.0625 C-6.14977395 -0.00909988 -3.26015671 -0.0428968 0 0 Z " fill="#B4893C" transform="translate(14.25,9.9375)"/>
<path d="M0 0 C0.66 0.99 1.32 1.98 2 3 C3.32 3 4.64 3 6 3 C3.79294303 9.25798433 -3.55670822 11.87218604 -9 15 C-9.77730469 15.47566406 -10.55460937 15.95132813 -11.35546875 16.44140625 C-15.07692047 18.57325584 -18.34114163 19.69199937 -22.63671875 18.8828125 C-25.95932211 17.64164166 -28.96674442 15.94126176 -32 14.125 C-32.58869873 13.7734082 -33.17739746 13.42181641 -33.78393555 13.05957031 C-35.4375 12.0078125 -35.4375 12.0078125 -38 10 C-38 9.01 -38 8.02 -38 7 C-36.35 7 -34.7 7 -33 7 C-33 6.01 -33 5.02 -33 4 C-32.18015625 4.51691406 -31.3603125 5.03382812 -30.515625 5.56640625 C-29.43796875 6.22511719 -28.3603125 6.88382812 -27.25 7.5625 C-26.18265625 8.22378906 -25.1153125 8.88507813 -24.015625 9.56640625 C-21.2629326 11.15065882 -21.2629326 11.15065882 -19.05078125 10.9609375 C-15.915644 9.49190176 -12.92086476 7.81286458 -9.9375 6.0625 C-9.31294922 5.70220703 -8.68839844 5.34191406 -8.04492188 4.97070312 C-5.30710791 3.38411509 -2.63364041 1.75576028 0 0 Z " fill="#9E7637" transform="translate(71,97)"/>
<path d="M0 0 C3.0625 0.125 3.0625 0.125 5.0625 1.125 C5.0625 19.605 5.0625 38.085 5.0625 57.125 C4.7325 57.125 4.4025 57.125 4.0625 57.125 C4.03671875 56.52171875 4.0109375 55.9184375 3.984375 55.296875 C3.92765625 54.49765625 3.8709375 53.6984375 3.8125 52.875 C3.76609375 52.08609375 3.7196875 51.2971875 3.671875 50.484375 C3.27151862 47.9644351 3.27151862 47.9644351 1.05810547 46.51049805 C-1.79298678 43.10237199 -1.50351446 39.84371992 -1.4765625 35.59765625 C-1.49425186 34.35875893 -1.49425186 34.35875893 -1.51229858 33.09483337 C-1.54755583 30.45886379 -1.55672575 27.82368604 -1.5625 25.1875 C-1.5788696 22.5551231 -1.60098146 19.9230988 -1.63412476 17.2908783 C-1.65367135 15.65487223 -1.66309869 14.01870515 -1.66104126 12.38258362 C-1.70019351 8.17700263 -2.00921246 4.96768528 -3.9375 1.125 C-2.9375 0.125 -2.9375 0.125 0 0 Z " fill="#E0C679" transform="translate(42.9375,42.875)"/>
<path d="M0 0 C0.763125 0.825 1.52625 1.65 2.3125 2.5 C4.75434142 5.34055197 4.75434142 5.34055197 8 5 C8 5.66 8 6.32 8 7 C8.88171875 7.35578125 8.88171875 7.35578125 9.78125 7.71875 C12.48161766 9.27811724 13.67866997 10.97570049 15.5 13.5 C19.2252659 18.35413435 23.34228758 22.04232871 28.13867188 25.77539062 C29.45683738 26.81194034 30.73278453 27.90174659 32 29 C32 29.66 32 30.32 32 31 C32.66 31.33 33.32 31.66 34 32 C33 33 33 33 30.625 33.0625 C29.75875 33.041875 28.8925 33.02125 28 33 C27.01 33 26.02 33 25 33 C22.73828125 31.5390625 22.73828125 31.5390625 20.3125 29.625 C19.10013672 28.68527344 19.10013672 28.68527344 17.86328125 27.7265625 C17.24839844 27.15679687 16.63351563 26.58703125 16 26 C16 25.34 16 24.68 16 24 C15.01 23.67 14.02 23.34 13 23 C9 18.54285714 9 18.54285714 9 16 C8.34 16 7.68 16 7 16 C3.3956321 11.16230728 0.32301201 6.13722814 0 0 Z " fill="#CDB880" transform="translate(5,72)"/>
<path d="M0 0 C1.71896484 0.61488281 1.71896484 0.61488281 3.47265625 1.2421875 C5.0025638 1.78657178 6.532514 2.33083624 8.0625 2.875 C8.81466797 3.14441406 9.56683594 3.41382813 10.34179688 3.69140625 C11.08623047 3.95566406 11.83066406 4.21992188 12.59765625 4.4921875 C13.27320557 4.73308105 13.94875488 4.97397461 14.64477539 5.22216797 C23.09113864 8.01164794 29.77326533 8.76976871 39 10 C39 25.84 39 41.68 39 58 C38.67 58 38.34 58 38 58 C38 42.49 38 26.98 38 11 C36.68 11.33 35.36 11.66 34 12 C33.67 13.32 33.34 14.64 33 16 C20.48440794 14.97034845 10.20402957 11.78272494 -1 6 C-0.67 4.02 -0.34 2.04 0 0 Z " fill="#3F4454" transform="translate(55,6)"/>
<path d="M0 0 C0 14.52 0 29.04 0 44 C-1.65 43.67 -3.3 43.34 -5 43 C-6.61906389 39.76187221 -6.38993236 36.19009866 -6.5625 32.625 C-6.6049585 31.79315186 -6.64741699 30.96130371 -6.69116211 30.10424805 C-7.12564564 20.7370629 -7.08890527 11.37456664 -7 2 C-4.35261084 0.5393715 -3.10551666 0 0 0 Z " fill="#1D294B" transform="translate(68,46)"/>
<path d="M0 0 C0.33 0 0.66 0 1 0 C1 29.7 1 59.4 1 90 C-4.72726741 87.1363663 -4.72726741 87.1363663 -7 85 C-7.48101807 82.81697083 -7.48101807 82.81697083 -7.45410156 80.25317383 C-7.45379944 79.29240433 -7.45349731 78.33163483 -7.45318604 77.3417511 C-7.43254089 76.30729355 -7.41189575 75.272836 -7.390625 74.20703125 C-7.38496521 73.14586594 -7.37930542 72.08470062 -7.37347412 70.99137878 C-7.35106143 67.59796265 -7.30085449 64.20559765 -7.25 60.8125 C-7.2299414 58.51368711 -7.21168952 56.21485769 -7.1953125 53.91601562 C-7.1511807 48.27698436 -7.08421972 42.63856727 -7 37 C-6.67 37 -6.34 37 -6 37 C-5.67 50.2 -5.34 63.4 -5 77 C-3.68 77.66 -2.36 78.32 -1 79 C-0.67 63.49 -0.34 47.98 0 32 C-1.98 31.34 -3.96 30.68 -6 30 C-8.01470098 29.02995879 -10.01922047 28.03755118 -12 27 C-11.360625 26.87625 -10.72125 26.7525 -10.0625 26.625 C-9.381875 26.41875 -8.70125 26.2125 -8 26 C-7.67 25.34 -7.34 24.68 -7 24 C-5.02 24.99 -3.04 25.98 -1 27 C-0.67 18.09 -0.34 9.18 0 0 Z " fill="#554E42" transform="translate(48,12)"/>
<path d="M0 0 C2.77270429 0.61748874 5.54295598 1.24362456 8.3125 1.875 C9.49102539 2.13603516 9.49102539 2.13603516 10.69335938 2.40234375 C11.45068359 2.57636719 12.20800781 2.75039063 12.98828125 2.9296875 C13.68477783 3.08679199 14.38127441 3.24389648 15.09887695 3.40576172 C17 4 17 4 20 6 C17.03 6 14.06 6 11 6 C11.99 6.66 12.98 7.32 14 8 C15.15027447 11.03827425 15.11639084 13.98077544 15.09765625 17.203125 C15.09443359 18.1828125 15.09121094 19.1625 15.08789062 20.171875 C15.07951172 21.18765625 15.07113281 22.2034375 15.0625 23.25 C15.05798828 24.28125 15.05347656 25.3125 15.04882812 26.375 C15.03706088 28.91672573 15.02062011 31.45833319 15 34 C14.67 34 14.34 34 14 34 C14 27.07 14 20.14 14 13 C8.06 15.64 2.12 18.28 -4 21 C-4.66 19.68 -5.32 18.36 -6 17 C-4.02 16.34 -2.04 15.68 0 15 C0 10.05 0 5.1 0 0 Z " fill="#3F4A69" transform="translate(61,22)"/>
<path d="M0 0 C0.70640625 -0.01998047 1.4128125 -0.03996094 2.140625 -0.06054688 C5.48450543 -0.05738032 7.26898399 -0.02363149 9.734375 2.33984375 C10.75 4.4375 10.75 4.4375 10.75 6.4375 C8.4375 7.0625 8.4375 7.0625 5.75 7.4375 C4.76 6.7775 3.77 6.1175 2.75 5.4375 C-1.69825345 5.77065629 -5.18159653 7.17798825 -9.1875 9.0625 C-14.15098209 11.18448006 -16.9169445 11.79500504 -22.25 10.4375 C-24.22661274 10.2247583 -26.20623482 10.03884509 -28.1875 9.875 C-29.14527344 9.79121094 -30.10304688 9.70742187 -31.08984375 9.62109375 C-31.80269531 9.56050781 -32.51554687 9.49992188 -33.25 9.4375 C-29.4155522 6.88120147 -25.46032764 6.09905773 -21.05078125 5.02539062 C-17.7412618 4.18968702 -14.90670122 3.27899493 -11.78125 1.8359375 C-7.65322346 0.20116593 -4.38394645 -0.04498453 0 0 Z " fill="#D4BB6B" transform="translate(50.25,-0.4375)"/>
<path d="M0 0 C2.64 0 5.28 0 8 0 C8.33 11.22 8.66 22.44 9 34 C9.99 33.01 10.98 32.02 12 31 C13.2263757 33.45275141 13.11415314 35.0505781 13.09765625 37.7890625 C13.09443359 38.73007812 13.09121094 39.67109375 13.08789062 40.640625 C13.07951172 41.62546875 13.07113281 42.6103125 13.0625 43.625 C13.05798828 44.61757813 13.05347656 45.61015625 13.04882812 46.6328125 C13.03702145 49.0886016 13.020554 51.54427104 13 54 C11.68 54 10.36 54 9 54 C8.67 56.31 8.34 58.62 8 61 C6.35 61 4.7 61 3 61 C3.21062576 60.26916199 3.42125153 59.53832397 3.63825989 58.78533936 C5.61116371 51.51949218 6.46314154 44.83910314 6.51171875 37.328125 C6.53864555 35.75547882 6.53864555 35.75547882 6.56611633 34.15106201 C6.61966086 30.85074717 6.65393404 27.55057214 6.6875 24.25 C6.72072247 21.99216826 6.75521657 19.73435486 6.79101562 17.4765625 C6.87535407 11.98450069 6.94393624 6.49241943 7 1 C4.69 1 2.38 1 0 1 C0 0.67 0 0.34 0 0 Z " fill="#D4C495" transform="translate(87,15)"/>
<path d="M0 0 C0.99 0 1.98 0 3 0 C3.12683815 7.02901938 3.21436744 14.0577434 3.2746582 21.08764648 C3.29979315 23.47870919 3.33390633 25.86969514 3.37719727 28.26049805 C3.43789061 31.69859764 3.46622072 35.13568096 3.48828125 38.57421875 C3.51408768 39.64210129 3.5398941 40.70998383 3.56648254 41.81022644 C3.56960711 50.08928452 3.56960711 50.08928452 0.59448242 53.21411133 C-2 55 -2 55 -4 55 C-4 40.48 -4 25.96 -4 11 C-3.67 11 -3.34 11 -3 11 C-2.93941406 12.10859375 -2.87882812 13.2171875 -2.81640625 14.359375 C-2.73197049 15.8229282 -2.64732401 17.28646925 -2.5625 18.75 C-2.52318359 19.47960937 -2.48386719 20.20921875 -2.44335938 20.9609375 C-2.22441568 25.02158945 -2.22441568 25.02158945 -1.48413086 29.00878906 C-0.75677221 32.00038621 -0.94109696 34.93704212 -1 38 C1.38247914 30.40705834 1.43900227 22.91265337 1.625 15 C1.66325652 13.63930002 1.70231248 12.27862226 1.7421875 10.91796875 C1.83597068 7.6121118 1.92167389 4.30625326 2 1 C1.34 0.67 0.68 0.34 0 0 Z " fill="#D2C291" transform="translate(72,35)"/>
<path d="M0 0 C0.07493036 3.96516109 0.12896449 7.93004014 0.16479492 11.89575195 C0.18705458 13.89744576 0.22520146 15.89894275 0.26367188 17.90039062 C0.31957661 25.29844997 -0.13645183 31.15303837 -3 38 C-3.33 38 -3.66 38 -4 38 C-4 34.37 -4 30.74 -4 27 C-4.33 27 -4.66 27 -5 27 C-5.03867188 25.22882812 -5.03867188 25.22882812 -5.078125 23.421875 C-5.13441397 21.86454677 -5.19176114 20.30725653 -5.25 18.75 C-5.26417969 17.97269531 -5.27835937 17.19539063 -5.29296875 16.39453125 C-5.49349071 11.53383509 -5.49349071 11.53383509 -8.046875 7.453125 C-8.69140625 6.97359375 -9.3359375 6.4940625 -10 6 C-9.01958581 3.54896452 -8.3486182 2.23241214 -6.125 0.75 C-4 0 -4 0 0 0 Z " fill="#F6E4A4" transform="translate(74,36)"/>
<path d="M0 0 C4.34459562 0.86891912 6.51511336 1.51079526 10 4 C10 4.66 10 5.32 10 6 C9.34 6.66 8.68 7.32 8 8 C7.01 8 6.02 8 5 8 C5 16.58 5 25.16 5 34 C4.34 34 3.68 34 3 34 C3 32.68 3 31.36 3 30 C2.34 30 1.68 30 1 30 C0.67 30.99 0.34 31.98 0 33 C0 22.11 0 11.22 0 0 Z " fill="#DCBE73" transform="translate(29,38)"/>
<path d="M0 0 C0.33 0 0.66 0 1 0 C1 16.83 1 33.66 1 51 C0.67 51 0.34 51 0 51 C-0.33 46.38 -0.66 41.76 -1 37 C-3.33075929 37.95865509 -3.33075929 37.95865509 -5 41 C-5 31.76 -5 22.52 -5 13 C-3.68 12.67 -2.36 12.34 -1 12 C-0.67 8.04 -0.34 4.08 0 0 Z " fill="#F9F0C2" transform="translate(100,11)"/>
<path d="M0 0 C1.32 0.33 2.64 0.66 4 1 C4.33 16.18 4.66 31.36 5 47 C4.67 45.68 4.34 44.36 4 43 C2.68 42.67 1.36 42.34 0 42 C0 28.14 0 14.28 0 0 Z " fill="#131D35" transform="translate(10,21)"/>
<path d="M0 0 C1.32 0.33 2.64 0.66 4 1 C3.67 1.33 3.34 1.66 3 2 C2.95919217 3.99958364 2.95745644 6.00045254 3 8 C3.66 8 4.32 8 5 8 C5 18.89 5 29.78 5 41 C4.34 41 3.68 41 3 41 C-1.04342823 33.01927026 -0.33461702 24.70673661 -0.1875 16 C-0.17242973 14.44662752 -0.15874546 12.89324094 -0.14648438 11.33984375 C-0.11365497 7.55954385 -0.06200254 3.77992937 0 0 Z " fill="#191F31" transform="translate(22,27)"/>
<path d="M0 0 C1.8871875 0.0309375 1.8871875 0.0309375 3.8125 0.0625 C3.8125 0.3925 3.8125 0.7225 3.8125 1.0625 C1.5025 1.0625 -0.8075 1.0625 -3.1875 1.0625 C-3.1875 2.7125 -3.1875 4.3625 -3.1875 6.0625 C-2.1975 5.4025 -1.2075 4.7425 -0.1875 4.0625 C2.51953125 3.4296875 2.51953125 3.4296875 5.625 2.9375 C6.64207031 2.76992188 7.65914062 2.60234375 8.70703125 2.4296875 C11.77492818 2.06694245 14.7265266 1.99792059 17.8125 2.0625 C15.0699117 4.8050883 12.65252249 4.91562234 8.875 5.6875 C7.62847656 5.94789062 6.38195312 6.20828125 5.09765625 6.4765625 C1.8125 7.0625 1.8125 7.0625 -1.1875 7.0625 C-1.1875 20.2625 -1.1875 33.4625 -1.1875 47.0625 C-1.5175 47.0625 -1.8475 47.0625 -2.1875 47.0625 C-2.1875 33.8625 -2.1875 20.6625 -2.1875 7.0625 C-3.1775 7.0625 -4.1675 7.0625 -5.1875 7.0625 C-5.5175 20.5925 -5.8475 34.1225 -6.1875 48.0625 C-5.1975 48.3925 -4.2075 48.7225 -3.1875 49.0625 C-3.5175 51.0425 -3.8475 53.0225 -4.1875 55.0625 C-6.83365103 52.41634897 -7.11568454 50.4380108 -7.30775452 46.75921631 C-7.30553391 45.91538391 -7.30331329 45.07155151 -7.30102539 44.20214844 C-7.30094986 43.24145447 -7.30087433 42.2807605 -7.30079651 41.29095459 C-7.29563522 40.26165833 -7.29047394 39.23236206 -7.28515625 38.171875 C-7.2837413 37.11212463 -7.28232635 36.05237427 -7.28086853 34.96051025 C-7.27527382 31.57781138 -7.26272225 28.19517885 -7.25 24.8125 C-7.24498432 22.51823012 -7.24042153 20.22395921 -7.23632812 17.9296875 C-7.22530611 12.30726906 -7.20857321 6.68488927 -7.1875 1.0625 C-4.43671116 0.14557039 -2.82801087 -0.04636083 0 0 Z " fill="#2A2A2F" transform="translate(16.1875,14.9375)"/>
<path d="M0 0 C1.32 0 2.64 0 4 0 C4 13.2 4 26.4 4 40 C2.515 40.495 2.515 40.495 1 41 C-0.66577625 37.66844749 -0.12007856 33.93463941 -0.09765625 30.2734375 C-0.0962413 29.41062164 -0.09482635 28.54780579 -0.09336853 27.65884399 C-0.08776188 24.8975277 -0.07520827 22.13629188 -0.0625 19.375 C-0.05748586 17.5052095 -0.0529228 15.63541774 -0.04882812 13.765625 C-0.03779029 9.17705223 -0.0205212 4.58853977 0 0 Z " fill="#152144" transform="translate(36,49)"/>
<path d="M0 0 C1.65 0 3.3 0 5 0 C5 10.56 5 21.12 5 32 C4.01 32 3.02 32 2 32 C1.01 32.495 1.01 32.495 0 33 C0 22.11 0 11.22 0 0 Z " fill="#F8E8AB" transform="translate(82,30)"/>
<path d="M0 0 C0.33 0 0.66 0 1 0 C1.33 3.3 1.66 6.6 2 10 C5.60992379 9.34414811 5.60992379 9.34414811 9 8 C9 9.65 9 11.3 9 13 C7.35 13.33 5.7 13.66 4 14 C4 16.31 4 18.62 4 21 C3.01 21 2.02 21 1 21 C0.67 21.66 0.34 22.32 0 23 C-0.99 23 -1.98 23 -3 23 C-3.33 23.99 -3.66 24.98 -4 26 C-4.99 25.34 -5.98 24.68 -7 24 C-6.34515625 23.36707031 -5.6903125 22.73414062 -5.015625 22.08203125 C-2.25340861 17.85840967 -2.54803219 14.60852347 -2.75 9.6875 C-2.76804687 8.85154297 -2.78609375 8.01558594 -2.8046875 7.15429688 C-2.85158874 5.10236772 -2.92332589 3.05103244 -3 1 C-2.34 1.33 -1.68 1.66 -1 2 C-0.67 1.34 -0.34 0.68 0 0 Z " fill="#141E40" transform="translate(79,65)"/>
<path d="M0 0 C5.61 0 11.22 0 17 0 C17 4.62 17 9.24 17 14 C15.35 14 13.7 14 12 14 C12 11.03 12 8.06 12 5 C10.89140625 5.02320313 9.7828125 5.04640625 8.640625 5.0703125 C7.17709008 5.08907577 5.71354786 5.10727537 4.25 5.125 C3.52039063 5.14175781 2.79078125 5.15851562 2.0390625 5.17578125 C-1.8044624 5.21072239 -4.74606772 5.17499684 -8 3 C-5.69 3 -3.38 3 -1 3 C-0.67 2.01 -0.34 1.02 0 0 Z " fill="#ECDEB0" transform="translate(83,10)"/>
<path d="M0 0 C0.99 0 1.98 0 3 0 C3.75363052 3.35091771 4.11979937 6.43109812 4.09765625 9.86328125 C4.09282227 11.19262695 4.09282227 11.19262695 4.08789062 12.54882812 C4.07951172 13.46083984 4.07113281 14.37285156 4.0625 15.3125 C4.05798828 16.24384766 4.05347656 17.17519531 4.04882812 18.13476562 C4.03709234 20.42324373 4.02067363 22.71158808 4 25 C2.02 24.01 0.04 23.02 -2 22 C-2.33 15.4 -2.66 8.8 -3 2 C-2.01 2 -1.02 2 0 2 C0 1.34 0 0.68 0 0 Z " fill="#E9CF82" transform="translate(44,15)"/>
<path d="M0 0 C0 2.64 0 5.28 0 8 C-0.33 8 -0.66 8 -1 8 C-1 6.35 -1 4.7 -1 3 C-1.99 3 -2.98 3 -4 3 C-4 3.66 -4 4.32 -4 5 C-4.99 5 -5.98 5 -7 5 C-6.75443359 5.99580078 -6.75443359 5.99580078 -6.50390625 7.01171875 C-5.89396143 10.62883337 -5.89204487 14.15860708 -5.9375 17.8125 C-5.94201172 18.50537109 -5.94652344 19.19824219 -5.95117188 19.91210938 C-5.96286844 21.60811068 -5.98080076 23.30406703 -6 25 C-6.33 25 -6.66 25 -7 25 C-7 20.38 -7 15.76 -7 11 C-7.969375 11.33 -8.93875 11.66 -9.9375 12 C-14.29766837 13.26873752 -18.49554566 13.18385528 -23 13 C-23 11.68 -23 10.36 -23 9 C-18.06832188 6.86720933 -13.11337372 4.80883533 -8.125 2.8125 C-7.44953125 2.53986328 -6.7740625 2.26722656 -6.078125 1.98632812 C-1.11977209 0 -1.11977209 0 0 0 Z " fill="#BCA870" transform="translate(48,12)"/>
<path d="M0 0 C6.72 0.72 6.72 0.72 8 2 C8.25343003 5.74309759 8.18523237 9.49934483 8.1875 13.25 C8.19974609 14.30058594 8.21199219 15.35117187 8.22460938 16.43359375 C8.22750977 17.95919922 8.22750977 17.95919922 8.23046875 19.515625 C8.23457764 20.44665039 8.23868652 21.37767578 8.24291992 22.33691406 C7.98028495 25.21613246 7.19623423 27.38173751 6 30 C5.34 29.67 4.68 29.34 4 29 C3.9906543 28.29391602 3.98130859 27.58783203 3.97167969 26.86035156 C3.91794341 23.65619455 3.83430243 20.45349243 3.75 17.25 C3.73582031 16.13882813 3.72164063 15.02765625 3.70703125 13.8828125 C3.67480469 12.81289063 3.64257812 11.74296875 3.609375 10.640625 C3.58842773 9.65610352 3.56748047 8.67158203 3.54589844 7.65722656 C2.86726143 4.35387897 1.54210423 3.13465895 -1 1 C-0.67 0.67 -0.34 0.34 0 0 Z " fill="#27355E" transform="translate(72,27)"/>
<path d="M0 0 C0.33 0 0.66 0 1 0 C1.05070326 6.47783059 1.08573492 12.95561001 1.10986328 19.43359375 C1.11992183 21.63738925 1.13357026 23.8411714 1.15087891 26.04492188 C1.1751334 29.21227309 1.1864846 32.37944787 1.1953125 35.546875 C1.20563507 36.53242371 1.21595764 37.51797241 1.22659302 38.53338623 C1.22674408 39.4540387 1.22689514 40.37469116 1.22705078 41.32324219 C1.231492 42.1315448 1.23593323 42.93984741 1.24050903 43.77264404 C0.97424 46.23856351 0.23223044 47.86542578 -1 50 C-0.01 50 0.98 50 2 50 C2.66 45.71 3.32 41.42 4 37 C4.33 37 4.66 37 5 37 C5.57028776 45.69688834 3.92677158 53.76758386 -1.6875 60.6875 C-2.450625 61.450625 -3.21375 62.21375 -4 63 C-4.33 63 -4.66 63 -5 63 C-5 61.02 -5 59.04 -5 57 C-3.02 56.505 -3.02 56.505 -1 56 C-1 54.68 -1 53.36 -1 52 C-1.66 52.66 -2.32 53.32 -3 54 C-3.99 53.67 -4.98 53.34 -6 53 C-5.64726517 52.47217422 -5.29453033 51.94434845 -4.93110657 51.40052795 C-1.16390732 45.30519434 -0.26252484 40.58710896 -0.29296875 33.49609375 C-0.27784744 32.5322023 -0.26272614 31.56831085 -0.24714661 30.57521057 C-0.20452835 27.52906425 -0.1954566 24.48391378 -0.1875 21.4375 C-0.1643356 19.35869796 -0.13896626 17.27991925 -0.11132812 15.20117188 C-0.0487313 10.13402754 -0.01619414 5.06749645 0 0 Z " fill="#282B35" transform="translate(88,22)"/>
<path d="M0 0 C0.33 0 0.66 0 1 0 C1.33 18.48 1.66 36.96 2 56 C3.98 55.01 5.96 54.02 8 53 C7.67 54.32 7.34 55.64 7 57 C7.99 57.66 8.98 58.32 10 59 C8.4493684 60.03877263 6.88390319 61.05542555 5.3125 62.0625 C4.44238281 62.63097656 3.57226562 63.19945312 2.67578125 63.78515625 C-0.49344256 65.22403013 -1.76594632 65.1960099 -5 64 C-5.99 63.01 -6.98 62.02 -8 61 C-5.03 61 -2.06 61 1 61 C0.505 59.515 0.505 59.515 0 58 C-0.08852819 56.11343185 -0.11762222 54.22384476 -0.11352539 52.33520508 C-0.11344986 51.17422806 -0.11337433 50.01325104 -0.11329651 48.8170929 C-0.10813522 47.56389755 -0.10297394 46.31070221 -0.09765625 45.01953125 C-0.0962413 43.73640549 -0.09482635 42.45327972 -0.09336853 41.13127136 C-0.08955405 37.72329759 -0.07973291 34.31536657 -0.06866455 30.90740967 C-0.05842743 27.42851337 -0.05386598 23.94961015 -0.04882812 20.47070312 C-0.03810967 13.64711788 -0.02104609 6.82356099 0 0 Z " fill="#3C3831" transform="translate(53,44)"/>
<path d="M0 0 C0.33 0 0.66 0 1 0 C1 16.17 1 32.34 1 49 C-1.31 50.32 -3.62 51.64 -6 53 C-6 48.71 -6 44.42 -6 40 C-4.68 40 -3.36 40 -2 40 C-0.36342246 36.72684491 -0.7569193 33.09377769 -0.68359375 29.4921875 C-0.66281265 28.65156769 -0.64203156 27.81094788 -0.62062073 26.94485474 C-0.55514561 24.25498765 -0.4962498 21.56502157 -0.4375 18.875 C-0.39431284 17.05337511 -0.35069848 15.23176029 -0.30664062 13.41015625 C-0.19946632 8.94020606 -0.09819315 4.47015614 0 0 Z " fill="#C2AB70" transform="translate(60,48)"/>
<path d="M0 0 C1.66870487 0.32297514 3.33465333 0.66013333 5 1 C8.32888939 1.38175337 11.66323675 1.69547986 15 2 C15 2.33 15 2.66 15 3 C9.06 3.495 9.06 3.495 3 4 C3 17.86 3 31.72 3 46 C2.34 46 1.68 46 1 46 C0.97494385 44.81446533 0.9498877 43.62893066 0.92407227 42.4074707 C0.82974468 37.99981282 0.72958623 33.59230322 0.62768555 29.18481445 C0.58443247 27.27892532 0.54275075 25.37299983 0.50268555 23.46704102 C0.44474929 20.72400979 0.3811226 17.98115987 0.31640625 15.23828125 C0.29969376 14.38913651 0.28298126 13.53999176 0.26576233 12.66511536 C0.1653843 8.63668979 -0.16794497 4.954085 -1 1 C-0.67 0.67 -0.34 0.34 0 0 Z " fill="#9A7C44" transform="translate(6,12)"/>
<path d="M0 0 C0.66 1.32 1.32 2.64 2 4 C2.99 3.67 3.98 3.34 5 3 C5.08086376 5.93804996 5.1404283 8.87388075 5.1875 11.8125 C5.21263672 12.64587891 5.23777344 13.47925781 5.26367188 14.33789062 C5.27333984 15.14033203 5.28300781 15.94277344 5.29296875 16.76953125 C5.3086792 17.50792236 5.32438965 18.24631348 5.34057617 19.00708008 C4.91074167 21.52230522 3.92536938 22.39441516 2 24 C1.01 23.67 0.02 23.34 -1 23 C-1.18451025 7.25512528 -1.18451025 7.25512528 0 0 Z " fill="#E2C97E" transform="translate(55,65)"/>
<path d="M0 0 C0.33 0 0.66 0 1 0 C1.14926354 6.0830635 1.25764672 12.16504155 1.32958984 18.24951172 C1.35960591 20.31545603 1.40043279 22.38127459 1.45263672 24.44677734 C1.96300275 45.17164099 1.96300275 45.17164099 -3.60302734 52.60791016 C-5 54 -5 54 -6 54 C-6 47.4 -6 40.8 -6 34 C-5.67 34 -5.34 34 -5 34 C-4.67 35.98 -4.34 37.96 -4 40 C-3.01 39.34 -2.02 38.68 -1 38 C-0.66232958 35.09843676 -0.51091656 32.4000311 -0.48828125 29.4921875 C-0.47033005 28.65156769 -0.45237885 27.81094788 -0.43388367 26.94485474 C-0.37961969 24.25495449 -0.34583414 21.56523324 -0.3125 18.875 C-0.27934105 17.05336041 -0.24485273 15.2317445 -0.20898438 13.41015625 C-0.12388428 8.94023305 -0.05715044 4.47036441 0 0 Z " fill="#BFAF82" transform="translate(87,22)"/>
<path d="M0 0 C4.875 2.625 4.875 2.625 6 6 C5.67 6.99 5.34 7.98 5 9 C5.78375 9.144375 6.5675 9.28875 7.375 9.4375 C10 10 10 10 12 11 C12 11.66 12 12.32 12 13 C12.66386719 12.71125 13.32773437 12.4225 14.01171875 12.125 C14.89472656 11.75375 15.77773438 11.3825 16.6875 11 C17.55761719 10.62875 18.42773438 10.2575 19.32421875 9.875 C22.0572002 8.98129512 24.14700934 8.83550324 27 9 C22.71516124 12.4608313 19.05179484 14.8920108 13.4375 15.1875 C9.17832415 14.46518363 5.65527968 12.32351917 2 10.125 C1.4114624 9.77332764 0.8229248 9.42165527 0.21655273 9.05932617 C-1.4375 8.0078125 -1.4375 8.0078125 -4 6 C-4 5.01 -4 4.02 -4 3 C-2.35 3 -0.7 3 1 3 C0.67 2.01 0.34 1.02 0 0 Z " fill="#877755" transform="translate(37,101)"/>
<path d="M0 0 C1.45880109 0.14107747 2.91703551 0.28802415 4.375 0.4375 C5.59316406 0.55931641 5.59316406 0.55931641 6.8359375 0.68359375 C9 1 9 1 11 2 C11 4.64 11 7.28 11 10 C10.01 10.33 9.02 10.66 8 11 C7.34 10.67 6.68 10.34 6 10 C6 18.58 6 27.16 6 36 C5.67 36 5.34 36 5 36 C5 26.43 5 16.86 5 7 C2.03 6.67 -0.94 6.34 -4 6 C-4 5.67 -4 5.34 -4 5 C-1.69 5 0.62 5 3 5 C3 4.01 3 3.02 3 2 C2.01 1.67 1.02 1.34 0 1 C0 0.67 0 0.34 0 0 Z " fill="#DDD19E" transform="translate(76,20)"/>
<path d="M0 0 C0.33 0 0.66 0 1 0 C1.33 13.2 1.66 26.4 2 40 C3.32 40.66 4.64 41.32 6 42 C6.609375 44.3828125 6.609375 44.3828125 6.75 47.125 C6.80671875 48.03507812 6.8634375 48.94515625 6.921875 49.8828125 C6.94765625 50.58148438 6.9734375 51.28015625 7 52 C4.08482708 50.92598892 2.22189824 50.22189824 0 48 C-0.24050903 45.93722534 -0.24050903 45.93722534 -0.22705078 43.36669922 C-0.22689972 42.40585419 -0.22674866 41.44500916 -0.22659302 40.45504761 C-0.21627045 39.41542877 -0.20594788 38.37580994 -0.1953125 37.3046875 C-0.1924826 36.24210724 -0.18965271 35.17952698 -0.18673706 34.08474731 C-0.17551639 30.68138501 -0.15040837 27.27828314 -0.125 23.875 C-0.11497264 21.57161838 -0.10584637 19.26823264 -0.09765625 16.96484375 C-0.07557093 11.30980655 -0.04207489 5.65492187 0 0 Z " fill="#9B854E" transform="translate(41,49)"/>
<path d="M0 0 C3.0625 0.125 3.0625 0.125 5.0625 1.125 C5.0625 8.715 5.0625 16.305 5.0625 24.125 C4.7325 24.125 4.4025 24.125 4.0625 24.125 C3.4025 19.505 2.7425 14.885 2.0625 10.125 C0.39907163 11.78842837 0.70201903 13.9075709 0.5 16.1875 C0.37431641 17.56615234 0.37431641 17.56615234 0.24609375 18.97265625 C0.18550781 19.68292969 0.12492187 20.39320312 0.0625 21.125 C-0.2675 21.125 -0.5975 21.125 -0.9375 21.125 C-1.01097656 19.58779297 -1.01097656 19.58779297 -1.0859375 18.01953125 C-1.16101071 16.6588294 -1.23655655 15.29815356 -1.3125 13.9375 C-1.35890625 12.92719727 -1.35890625 12.92719727 -1.40625 11.89648438 C-1.63853922 7.92821025 -2.22137476 4.71770121 -3.9375 1.125 C-2.9375 0.125 -2.9375 0.125 0 0 Z " fill="#E4CE88" transform="translate(42.9375,42.875)"/>
<path d="M0 0 C1.07314453 -0.03673828 1.07314453 -0.03673828 2.16796875 -0.07421875 C7.37296936 -0.10340567 7.37296936 -0.10340567 9.8671875 2.2734375 C10.875 4.375 10.875 4.375 10.875 6.375 C8.625 7.0625 8.625 7.0625 5.875 7.375 C5.2975 6.900625 4.72 6.42625 4.125 5.9375 C0.62755966 3.50872199 -2.99112955 4.13650747 -7.125 4.375 C-7.125 5.035 -7.125 5.695 -7.125 6.375 C-8.775 6.705 -10.425 7.035 -12.125 7.375 C-11.465 7.045 -10.805 6.715 -10.125 6.375 C-10.125 5.715 -10.125 5.055 -10.125 4.375 C-9.795 4.045 -9.465 3.715 -9.125 3.375 C-10.445 3.045 -11.765 2.715 -13.125 2.375 C-8.79238659 0.2511699 -4.7404935 0.00863478 0 0 Z " fill="#E3C87E" transform="translate(50.125,-0.375)"/>
<path d="M0 0 C0.66 0 1.32 0 2 0 C2.26554688 1.09699219 2.53109375 2.19398437 2.8046875 3.32421875 C3.16126815 4.77869247 3.5180496 6.23311698 3.875 7.6875 C4.04902344 8.40873047 4.22304687 9.12996094 4.40234375 9.87304688 C5.35097866 13.72028845 6.40490841 17.35715569 8 21 C4.36201952 20.7921154 3.01847819 20.0163784 0.25 17.5625 C-2.89667622 13.52804679 -2.8923501 8.95189531 -3 4 C-2.34 4.66 -1.68 5.32 -1 6 C-0.67 4.02 -0.34 2.04 0 0 Z " fill="#B69751" transform="translate(7,58)"/>
<path d="M0 0 C2.64 0 5.28 0 8 0 C8 0.33 8 0.66 8 1 C6.35 1 4.7 1 3 1 C3.09409197 5.57187518 3.20030419 10.14325521 3.31738281 14.71459961 C3.35548484 16.26725716 3.39036928 17.81999733 3.421875 19.37280273 C3.46793685 21.61471947 3.52585878 23.85607645 3.5859375 26.09765625 C3.59748871 26.78336197 3.60903992 27.46906769 3.62094116 28.17555237 C3.76007254 32.79809177 4.58717587 36.64007431 6 41 C4.515 41.495 4.515 41.495 3 42 C1.45815242 36.48180866 0.67992916 31.49679542 0.5859375 25.78125 C0.56657135 25.03790405 0.5472052 24.29455811 0.5272522 23.52868652 C0.4681181 21.18590277 0.42134004 18.84306808 0.375 16.5 C0.33675906 14.89841767 0.29770391 13.29685457 0.2578125 11.6953125 C0.16247248 7.79703363 0.07820206 3.89865878 0 0 Z " fill="#B49C6A" transform="translate(19,26)"/>
<path d="M0 0 C1.32 0 2.64 0 4 0 C4.04983765 5.78001685 4.08592481 11.55990564 4.10986328 17.34008789 C4.11985425 19.30202415 4.13345163 21.26394578 4.15087891 23.22583008 C4.36755692 48.26488616 4.36755692 48.26488616 1 55 C0.01 55 -0.98 55 -2 55 C-1.34 49.72 -0.68 44.44 0 39 C0.66 39.66 1.32 40.32 2 41 C2.0493521 35.48243524 2.08569662 29.96499829 2.10986328 24.44726562 C2.11993534 22.56931318 2.13359362 20.69137647 2.15087891 18.81347656 C2.17507453 16.1177991 2.18647083 13.42232854 2.1953125 10.7265625 C2.20563507 9.88380768 2.21595764 9.04105286 2.22659302 8.17276001 C2.22699144 6.11378753 2.12257588 4.05532065 2 2 C1.34 1.34 0.68 0.68 0 0 Z " fill="#18213B" transform="translate(89,17)"/>
<path d="M0 0 C0.763125 0.825 1.52625 1.65 2.3125 2.5 C4.75434142 5.34055197 4.75434142 5.34055197 8 5 C8 5.66 8 6.32 8 7 C8.556875 7.185625 9.11375 7.37125 9.6875 7.5625 C13.06754192 9.66360714 14.85140381 12.70665994 17 16 C14 18 14 18 11 18 C10.34 16.35 9.68 14.7 9 13 C8.34 13 7.68 13 7 13 C6.67 11.68 6.34 10.36 6 9 C5.38125 8.938125 4.7625 8.87625 4.125 8.8125 C2 8 2 8 0.75 5.625 C0 3 0 3 0 0 Z " fill="#D3B15F" transform="translate(5,72)"/>
<path d="M0 0 C3.74077522 0.85049701 6.82754201 2.31407037 10.25 4.0625 C11.32765625 4.61035156 12.4053125 5.15820312 13.515625 5.72265625 C14.74539062 6.35494141 14.74539062 6.35494141 16 7 C15.34 7.66 14.68 8.32 14 9 C13.01 9 12.02 9 11 9 C10.34 8.01 9.68 7.02 9 6 C6.36 5.01 3.72 4.02 1 3 C1 13.89 1 24.78 1 36 C0.01 36 -0.98 36 -2 36 C-1.67 35.34 -1.34 34.68 -1 34 C-0.84355828 31.44893971 -0.74178611 28.92081337 -0.68359375 26.3671875 C-0.66281265 25.61535187 -0.64203156 24.86351624 -0.62062073 24.08889771 C-0.55517295 21.68435915 -0.49626262 19.27971033 -0.4375 16.875 C-0.39431023 15.24608229 -0.35069579 13.61717578 -0.30664062 11.98828125 C-0.19949649 7.99230085 -0.09821567 3.99620941 0 0 Z M8 9 C9.32 9.33 10.64 9.66 12 10 C12 10.99 12 11.98 12 13 C11.01 12.67 10.02 12.34 9 12 C8.67 11.01 8.34 10.02 8 9 Z " fill="#C1AC78" transform="translate(28,35)"/>
<path d="M0 0 C6.52883761 -0.66962437 11.34125129 2.17062564 17 5 C17 5.99 17 6.98 17 8 C13.7 8 10.4 8 7 8 C6.67 7.01 6.34 6.02 6 5 C2.48809191 3.77030122 2.48809191 3.77030122 -1 3 C-0.67 2.01 -0.34 1.02 0 0 Z " fill="#EDE6B9" transform="translate(62,17)"/>
<path d="M0 0 C0.66 0.66 1.32 1.32 2 2 C4.60280568 1.67958603 4.60280568 1.67958603 7 1 C5.60870061 5.86954788 3.13332746 8.16340273 -1 11 C-3.875 11.3125 -3.875 11.3125 -6 11 C-6.33 9.35 -6.66 7.7 -7 6 C-4.69 4.02 -2.38 2.04 0 0 Z " fill="#D6BD7B" transform="translate(79,90)"/>
<path d="M0 0 C3.125 6.25 3.125 6.25 3.09765625 10.5703125 C3.09282227 11.91416016 3.09282227 11.91416016 3.08789062 13.28515625 C3.07951172 14.22230469 3.07113281 15.15945312 3.0625 16.125 C3.05798828 17.06988281 3.05347656 18.01476562 3.04882812 18.98828125 C3.03702357 21.32558387 3.02055759 23.66276061 3 26 C2.67 26 2.34 26 2 26 C1.97421875 25.39671875 1.9484375 24.7934375 1.921875 24.171875 C1.53878778 18.77382775 0.93505386 16.80811663 -3 13 C-3.67875514 7.76388889 -2.64202986 4.51346767 0 0 Z " fill="#CDAC60" transform="translate(45,74)"/>
<path d="M0 0 C0.99 0.33 1.98 0.66 3 1 C2.125 5.875 2.125 5.875 1 7 C0.84259395 8.70563778 0.74906608 10.41727244 0.68359375 12.12890625 C0.64169922 13.16337891 0.59980469 14.19785156 0.55664062 15.26367188 C0.51732422 16.35228516 0.47800781 17.44089844 0.4375 18.5625 C0.39431641 19.65498047 0.35113281 20.74746094 0.30664062 21.87304688 C0.20017932 24.58189564 0.09816484 27.29083992 0 30 C-0.66 30 -1.32 30 -2 30 C-2.21692384 26.04978266 -2.41380269 22.09912984 -2.59204102 18.14697266 C-2.65552415 16.80229928 -2.72450857 15.45787401 -2.79907227 14.11376953 C-2.90520939 12.1833561 -2.99002538 10.25180741 -3.07421875 8.3203125 C-3.13182373 7.15773926 -3.18942871 5.99516602 -3.2487793 4.79736328 C-3.16668213 3.8742334 -3.08458496 2.95110352 -3 2 C-2.01 1.34 -1.02 0.68 0 0 Z " fill="#172448" transform="translate(52,6)"/>
<path d="M0 0 C0.928125 0.0825 1.85625 0.165 2.8125 0.25 C2.4825 1.57 2.1525 2.89 1.8125 4.25 C3.1325 4.91 4.4525 5.57 5.8125 6.25 C5.8125 6.91 5.8125 7.57 5.8125 8.25 C5.049375 7.940625 4.28625 7.63125 3.5 7.3125 C1.62460323 6.57106407 -0.27434652 5.88771783 -2.1875 5.25 C-2.1875 16.8 -2.1875 28.35 -2.1875 40.25 C-4.1875 38.25 -4.1875 38.25 -4.3828125 35.1171875 C-4.35960938 33.79976562 -4.33640625 32.48234375 -4.3125 31.125 C-4.30114014 30.07094971 -4.30114014 30.07094971 -4.28955078 28.99560547 C-4.25678411 25.984415 -4.20047953 22.97376307 -4.14648438 19.96289062 C-4.11042316 17.76695238 -4.08616814 15.57110102 -4.0625 13.375 C-4.02769531 11.39886719 -4.02769531 11.39886719 -3.9921875 9.3828125 C-3.84691005 6.14943125 -3.84691005 6.14943125 -6.1875 4.25 C-4.36434338 1.00883268 -3.82500054 0.30000004 0 0 Z " fill="#363739" transform="translate(30.1875,29.75)"/>
<path d="M0 0 C0.99 0.33 1.98 0.66 3 1 C2.34 2.32 1.68 3.64 1 5 C1.99 5.33 2.98 5.66 4 6 C1 8 1 8 -2 9 C-2.66 7.68 -3.32 6.36 -4 5 C-5.65 5.33 -7.3 5.66 -9 6 C-9 15.24 -9 24.48 -9 34 C-9.33 34 -9.66 34 -10 34 C-10 24.43 -10 14.86 -10 5 C-6.7 3.35 -3.4 1.7 0 0 Z " fill="#DBCE9F" transform="translate(64,39)"/>
<path d="M0 0 C1.1446875 0.3403125 1.1446875 0.3403125 2.3125 0.6875 C3.31255304 3.68765912 3.42825585 5.66173756 3.41015625 8.79296875 C3.40693359 9.77587891 3.40371094 10.75878906 3.40039062 11.77148438 C3.39201172 12.79564453 3.38363281 13.81980469 3.375 14.875 C3.37048828 15.91076172 3.36597656 16.94652344 3.36132812 18.01367188 C3.3495401 20.57167266 3.33308515 23.12955733 3.3125 25.6875 C2.9825 25.6875 2.6525 25.6875 2.3125 25.6875 C2.3125 18.7575 2.3125 11.8275 2.3125 4.6875 C-1.6475 6.3375 -5.6075 7.9875 -9.6875 9.6875 C-9.6875 8.6975 -9.6875 7.7075 -9.6875 6.6875 C-8.6975 6.6875 -7.7075 6.6875 -6.6875 6.6875 C-6.584375 6.089375 -6.48125 5.49125 -6.375 4.875 C-5.20132401 1.1405764 -4.05011377 -0.47094346 0 0 Z " fill="#434D6C" transform="translate(72.6875,30.3125)"/>
<path d="M0 0 C0.66 0.99 1.32 1.98 2 3 C3.32 3 4.64 3 6 3 C4.54144353 6.68646141 2.69770955 8.16143971 -0.625 10.25 C-1.44226563 10.77078125 -2.25953125 11.2915625 -3.1015625 11.828125 C-4.04128906 12.40820312 -4.04128906 12.40820312 -5 13 C-6.32 12.34 -7.64 11.68 -9 11 C-8.01 10.67 -7.02 10.34 -6 10 C-5.938125 9.278125 -5.87625 8.55625 -5.8125 7.8125 C-4.75543353 4.15342375 -2.79449929 2.50788398 0 0 Z " fill="#A78D55" transform="translate(71,97)"/>
<path d="M0 0 C1.8871875 0.0309375 1.8871875 0.0309375 3.8125 0.0625 C3.8125 0.3925 3.8125 0.7225 3.8125 1.0625 C0.5125 1.3925 -2.7875 1.7225 -6.1875 2.0625 C-6.1875 17.2425 -6.1875 32.4225 -6.1875 48.0625 C-5.1975 48.3925 -4.2075 48.7225 -3.1875 49.0625 C-3.5175 51.0425 -3.8475 53.0225 -4.1875 55.0625 C-6.83365103 52.41634897 -7.11568454 50.4380108 -7.30775452 46.75921631 C-7.30553391 45.91538391 -7.30331329 45.07155151 -7.30102539 44.20214844 C-7.30094986 43.24145447 -7.30087433 42.2807605 -7.30079651 41.29095459 C-7.29563522 40.26165833 -7.29047394 39.23236206 -7.28515625 38.171875 C-7.2837413 37.11212463 -7.28232635 36.05237427 -7.28086853 34.96051025 C-7.27527382 31.57781138 -7.26272225 28.19517885 -7.25 24.8125 C-7.24498432 22.51823012 -7.24042153 20.22395921 -7.23632812 17.9296875 C-7.22530611 12.30726906 -7.20857321 6.68488927 -7.1875 1.0625 C-4.43671116 0.14557039 -2.82801087 -0.04636083 0 0 Z " fill="#332E29" transform="translate(16.1875,14.9375)"/>
<path d="M0 0 C0 2.97 0 5.94 0 9 C-0.99 9 -1.98 9 -3 9 C-3.33 11.31 -3.66 13.62 -4 16 C-5.65 16 -7.3 16 -9 16 C-8.60140439 14.07949388 -8.18034074 12.16364288 -7.75 10.25 C-7.51796875 9.18265625 -7.2859375 8.1153125 -7.046875 7.015625 C-5.81914955 3.47904272 -4.13052002 0 0 0 Z " fill="#C8A959" transform="translate(99,60)"/>
<path d="M0 0 C0.33 1.32 0.66 2.64 1 4 C2.65 3.67 4.3 3.34 6 3 C6 6.3 6 9.6 6 13 C4.02 13.99 2.04 14.98 0 16 C0 10.72 0 5.44 0 0 Z " fill="#F8E7AD" transform="translate(54,24)"/>
<path d="M0 0 C0.66 0.33 1.32 0.66 2 1 C0.02 1.99 0.02 1.99 -2 3 C-2 3.66 -2 4.32 -2 5 C-1.34 5 -0.68 5 0 5 C0.33 5.99 0.66 6.98 1 8 C-1.99480917 8.8723412 -4.63575911 9.10829766 -7.75 9.0625 C-8.54921875 9.05347656 -9.3484375 9.04445313 -10.171875 9.03515625 C-10.77515625 9.02355469 -11.3784375 9.01195312 -12 9 C-12 7.68 -12 6.36 -12 5 C-10.29573455 4.26482667 -8.59095003 3.53081884 -6.8828125 2.8046875 C-5.31187085 2.1332892 -3.7486564 1.44384729 -2.1875 0.75 C-1.465625 0.5025 -0.74375 0.255 0 0 Z " fill="#C4AC6A" transform="translate(37,16)"/>
<path d="M0 0 C0.33 0 0.66 0 1 0 C1 9.24 1 18.48 1 28 C1.99 28 2.98 28 4 28 C4 28.66 4 29.32 4 30 C5.32 30.33 6.64 30.66 8 31 C6.09598862 32.90401138 4.66574314 33.93520439 1.953125 34.19921875 C-0.03233273 34.1886578 -2.0169914 34.09915043 -4 34 C-2.515 33.505 -2.515 33.505 -1 33 C-0.67 22.11 -0.34 11.22 0 0 Z " fill="#1C202F" transform="translate(61,68)"/>
<path d="M0 0 C3.44270378 1.33882925 5.57212909 3.31885049 8.25 5.875 C8.25 6.865 8.25 7.855 8.25 8.875 C8.91 9.205 9.57 9.535 10.25 9.875 C4.52719624 9.64141617 1.78617333 8.15021439 -2.46484375 4.34765625 C-3.75 2.875 -3.75 2.875 -3.75 0.875 C-1.75 -0.125 -1.75 -0.125 0 0 Z " fill="#E5D088" transform="translate(25.75,93.125)"/>
<path d="M0 0 C0.66 0.33 1.32 0.66 2 1 C0.50198648 4.61477175 -1.57537417 6.68620463 -4.5 9.25 C-5.2940625 9.95640625 -6.088125 10.6628125 -6.90625 11.390625 C-9 13 -9 13 -11 13 C-11 12.01 -11 11.02 -11 10 C-10.01 10 -9.02 10 -8 10 C-8.7763932 6.9254644 -8.7763932 6.9254644 -11 5 C-9.35 3.68 -7.7 2.36 -6 1 C-6.33 1.99 -6.66 2.98 -7 4 C-6.34 4.33 -5.68 4.66 -5 5 C-4.67 4.34 -4.34 3.68 -4 3 C-3.01 3 -2.02 3 -1 3 C-0.67 2.01 -0.34 1.02 0 0 Z " fill="#23272E" transform="translate(80,85)"/>
<path d="M0 0 C0.33 0 0.66 0 1 0 C1.25 5.625 1.25 5.625 -1 9 C-1 9.99 -1 10.98 -1 12 C-3.31 12.33 -5.62 12.66 -8 13 C-8.33 11.68 -8.66 10.36 -9 9 C-6.702779 7.25728062 -4.40133271 5.60088848 -2 4 C-0.80767387 1.94996045 -0.80767387 1.94996045 0 0 Z " fill="#EEE2A6" transform="translate(89,80)"/>
<path d="M0 0 C2.35448165 2.55068845 2.98327924 3.71017358 3.1875 7.25 C3.125625 8.1575 3.06375 9.065 3 10 C3.99 9.67 4.98 9.34 6 9 C6.33 10.32 6.66 11.64 7 13 C6.34 12.67 5.68 12.34 5 12 C4.34 12.66 3.68 13.32 3 14 C1.046875 13.3203125 1.046875 13.3203125 -1 12 C-1.609375 9.6171875 -1.609375 9.6171875 -1.75 6.875 C-1.80671875 5.96492188 -1.8634375 5.05484375 -1.921875 4.1171875 C-1.94765625 3.41851562 -1.9734375 2.71984375 -2 2 C-1.34 2 -0.68 2 0 2 C0 1.34 0 0.68 0 0 Z " fill="#D0AE5C" transform="translate(19,58)"/>
<path d="M0 0 C2.3125 0.0625 2.3125 0.0625 5 1 C7.31308125 3.95560382 8.81355048 6.44065145 10 10 C11.32 10 12.64 10 14 10 C14 11.32 14 12.64 14 14 C11 14 11 14 9 12.0625 C8.34 11.381875 7.68 10.70125 7 10 C6.01 9.67 5.02 9.34 4 9 C3.32060826 7.00428677 2.65438441 5.00405227 2 3 C1.01 2.34 0.02 1.68 -1 1 C-0.67 0.67 -0.34 0.34 0 0 Z " fill="#121F3C" transform="translate(21,82)"/>
<path d="M0 0 C0 14.52 0 29.04 0 44 C-0.33 44 -0.66 44 -1 44 C-1 30.14 -1 16.28 -1 2 C-2.98 2.99 -2.98 2.99 -5 4 C-5.66 3.34 -6.32 2.68 -7 2 C-4.35261084 0.5393715 -3.10551666 0 0 0 Z " fill="#4C4B44" transform="translate(68,46)"/>
<path d="M0 0 C6.72 0.72 6.72 0.72 8 2 C8.07179964 3.51928038 8.08392007 5.04167482 8.0625 6.5625 C8.05347656 7.38878906 8.04445313 8.21507812 8.03515625 9.06640625 C8.02355469 9.70449219 8.01195313 10.34257813 8 11 C6.02 11.99 6.02 11.99 4 13 C3.9175 11.7625 3.835 10.525 3.75 9.25 C3.36524541 6.01117036 3.09975997 5.12092117 0.9375 2.5 C0.298125 2.005 -0.34125 1.51 -1 1 C-0.67 0.67 -0.34 0.34 0 0 Z " fill="#2F3A62" transform="translate(72,27)"/>
<path d="M0 0 C0.33 0.66 0.66 1.32 1 2 C-0.65 2.33 -2.3 2.66 -4 3 C-4.08121094 3.62390625 -4.16242187 4.2478125 -4.24609375 4.890625 C-5 7 -5 7 -6.84765625 8.046875 C-7.94400391 8.39492188 -7.94400391 8.39492188 -9.0625 8.75 C-10.16271484 9.11351562 -10.16271484 9.11351562 -11.28515625 9.484375 C-12.13400391 9.73960938 -12.13400391 9.73960938 -13 10 C-13 9.34 -13 8.68 -13 8 C-12.01 8 -11.02 8 -10 8 C-9.34 6.35 -8.68 4.7 -8 3 C-9.98 3.33 -11.96 3.66 -14 4 C-10.12550738 0.12550738 -5.29610098 -2.02497979 0 0 Z " fill="#2F303C" transform="translate(54,5)"/>
<path d="M0 0 C1.98 0.66 3.96 1.32 6 2 C6 2.33 6 2.66 6 3 C4.35 3 2.7 3 1 3 C1 16.86 1 30.72 1 45 C0.67 45 0.34 45 0 45 C0 30.15 0 15.3 0 0 Z " fill="#333334" transform="translate(35,46)"/>
<path d="M0 0 C0.33 0 0.66 0 1 0 C1 6.6 1 13.2 1 20 C-0.98 19.01 -2.96 18.02 -5 17 C-5 13.7 -5 10.4 -5 7 C-4.67 7 -4.34 7 -4 7 C-3.8046875 9.05078125 -3.609375 11.1015625 -3.4140625 13.15234375 C-3.27742188 13.76207031 -3.14078125 14.37179688 -3 15 C-2.34 15.33 -1.68 15.66 -1 16 C-1.01160156 15.34773438 -1.02320313 14.69546875 -1.03515625 14.0234375 C-1.08470994 9.2238086 -0.99413751 4.72215315 0 0 Z " fill="#DECD96" transform="translate(47,20)"/>
<path d="M0 0 C-0.66 1.65 -1.32 3.3 -2 5 C-2.99 5 -3.98 5 -5 5 C-5 5.66 -5 6.32 -5 7 C-5.66 7 -6.32 7 -7 7 C-7.66 6.34 -8.32 5.68 -9 5 C-11.68839385 4.73008094 -14.29141936 4.91262643 -17 5 C-13.86768478 2.91178985 -11.56941553 2.24877798 -7.9375 1.375 C-6.87402344 1.11460938 -5.81054688 0.85421875 -4.71484375 0.5859375 C-2 0 -2 0 0 0 Z " fill="#232638" transform="translate(46,8)"/>
<path d="M0 0 C1.7074998 1.28062485 3.37373596 2.61767557 5 4 C5 4.66 5 5.32 5 6 C7.31 6 9.62 6 12 6 C11.67 7.65 11.34 9.3 11 11 C7.0507432 10.44894091 3.65079826 9.61064629 0 8 C0 7.34 0 6.68 0 6 C0.99 6 1.98 6 3 6 C2.2575 5.071875 2.2575 5.071875 1.5 4.125 C0 2 0 2 0 0 Z M4 6 C5 8 5 8 5 8 Z " fill="#ECE1AD" transform="translate(58,0)"/>
<path d="M0 0 C0.33 0 0.66 0 1 0 C1.06058594 0.69867188 1.12117188 1.39734375 1.18359375 2.1171875 C1.26738281 3.02726562 1.35117188 3.93734375 1.4375 4.875 C1.51871094 5.77992187 1.59992188 6.68484375 1.68359375 7.6171875 C1.86989285 10.01110861 1.86989285 10.01110861 3 12 C2.01 12 1.02 12 0 12 C-0.99 12.99 -1.98 13.98 -3 15 C-3 10.38 -3 5.76 -3 1 C-2.01 1.495 -2.01 1.495 -1 2 C-0.67 1.34 -0.34 0.68 0 0 Z " fill="#1A2546" transform="translate(79,65)"/>
<path d="M0 0 C0.64324219 0.27714844 1.28648438 0.55429687 1.94921875 0.83984375 C5.84524753 2.32143216 9.79913034 3.44564981 13.8125 4.5625 C14.58142578 4.78357422 15.35035156 5.00464844 16.14257812 5.23242188 C21.09662705 6.61621107 25.88167251 7.48058022 31 8 C31 8.33 31 8.66 31 9 C24.85081396 9.34661383 19.99119318 8.93221833 14.23828125 6.71484375 C11.80952897 5.93916894 9.66497449 5.76041059 7.125 5.625 C4.88671875 5.44921875 4.88671875 5.44921875 3 5 C0.9375 2.4375 0.9375 2.4375 0 0 Z " fill="#F9F4D7" transform="translate(60,1)"/>
<path d="M0 0 C1.32 0.66 2.64 1.32 4 2 C3.01 2 2.02 2 1 2 C1.33 7.28 1.66 12.56 2 18 C-0.31 18.99 -2.62 19.98 -5 21 C-5.33 19.68 -5.66 18.36 -6 17 C-4.02 16.34 -2.04 15.68 0 15 C0 10.05 0 5.1 0 0 Z " fill="#434954" transform="translate(61,22)"/>
<path d="M0 0 C1.22589844 0.01353516 1.22589844 0.01353516 2.4765625 0.02734375 C3.41628906 0.04474609 3.41628906 0.04474609 4.375 0.0625 C4.375 2.3725 4.375 4.6825 4.375 7.0625 C3.385 7.3925 2.395 7.7225 1.375 8.0625 C1.045 6.4125 0.715 4.7625 0.375 3.0625 C-1.605 3.0625 -3.585 3.0625 -5.625 3.0625 C-5.955 2.4025 -6.285 1.7425 -6.625 1.0625 C-4.21954362 -0.14022819 -2.67503047 -0.03821472 0 0 Z " fill="#ECD68E" transform="translate(94.625,11.9375)"/>
<path d="M0 0 C0 0.66 0 1.32 0 2 C-3.95514938 3.91378196 -7.59702891 4.39292563 -11.9140625 4.75390625 C-14.19131318 4.95105034 -14.19131318 4.95105034 -17 6 C-17 4.68 -17 3.36 -17 2 C-5.47835991 -0.29612756 -5.47835991 -0.29612756 0 0 Z " fill="#111D3F" transform="translate(30,15)"/>
<path d="M0 0 C0 0.99 0 1.98 0 3 C-9.375 6.125 -9.375 6.125 -14.6875 6.0625 C-15.68136719 6.05347656 -16.67523437 6.04445313 -17.69921875 6.03515625 C-18.83810547 6.01775391 -18.83810547 6.01775391 -20 6 C-16.60796525 3.7386435 -13.3273625 2.86862618 -9.4375 1.875 C-8.40979492 1.60236328 -8.40979492 1.60236328 -7.36132812 1.32421875 C-2.28847509 0 -2.28847509 0 0 0 Z " fill="#D3C087" transform="translate(37,3)"/>
<path d="M0 0 C2.2458579 1.04271974 4.10978043 2.08649367 6.0625 3.625 C8.0117832 5.2893735 8.0117832 5.2893735 11 5 C11.33 4.01 11.66 3.02 12 2 C12.433125 2.9590625 12.433125 2.9590625 12.875 3.9375 C13.82823451 6.15206079 13.82823451 6.15206079 16 7 C15 8 15 8 12.625 8.0625 C11.75875 8.041875 10.8925 8.02125 10 8 C9.01 8 8.02 8 7 8 C5.17578125 6.7578125 5.17578125 6.7578125 3.3125 5.125 C2.68988281 4.59132813 2.06726563 4.05765625 1.42578125 3.5078125 C0 2 0 2 0 0 Z " fill="#B5AA7F" transform="translate(23,97)"/>
<path d="M0 0 C1.65 1.65 3.3 3.3 5 5 C2 6 2 6 0 6 C0.66 6.391875 1.32 6.78375 2 7.1875 C4 9 4 9 4.25 11.6875 C4.1675 12.450625 4.085 13.21375 4 14 C2.33333333 12.33333333 0.66666667 10.66666667 -1 9 C-1.598125 8.443125 -2.19625 7.88625 -2.8125 7.3125 C-4 6 -4 6 -4 4 C-2.35 4 -0.7 4 1 4 C0.67 2.68 0.34 1.36 0 0 Z " fill="#272832" transform="translate(21,77)"/>
<path d="M0 0 C4.875 2.625 4.875 2.625 6 6 C5.67 6.66 5.34 7.32 5 8 C-0.41538462 8.36923077 -0.41538462 8.36923077 -3.375 6.5 C-3.91125 6.005 -4.4475 5.51 -5 5 C-4.67 4.34 -4.34 3.68 -4 3 C-2.35 3 -0.7 3 1 3 C0.67 2.01 0.34 1.02 0 0 Z " fill="#B69D5E" transform="translate(37,101)"/>
<path d="M0 0 C1.65 0 3.3 0 5 0 C5 0.66 5 1.32 5 2 C5.66 2.33 6.32 2.66 7 3 C6.67 3.66 6.34 4.32 6 5 C4.41705218 5.05437607 2.83355744 5.09296271 1.25 5.125 C0.36828125 5.14820313 -0.5134375 5.17140625 -1.421875 5.1953125 C-4.1135858 4.99139502 -5.69904974 4.36551721 -8 3 C-5.69 3 -3.38 3 -1 3 C-0.67 2.01 -0.34 1.02 0 0 Z " fill="#E6D9A4" transform="translate(83,10)"/>
<path d="M0 0 C0.99 0 1.98 0 3 0 C2.67 2.97 2.34 5.94 2 9 C-0.475 8.01 -0.475 8.01 -3 7 C-3 5.35 -3 3.7 -3 2 C-2.01 2 -1.02 2 0 2 C0 1.34 0 0.68 0 0 Z " fill="#DFC26D" transform="translate(44,15)"/>
<path d="M0 0 C3.28788824 3.11016455 5.83735988 6.01618925 8 10 C6.02 10.33 4.04 10.66 2 11 C0.57741188 7.17679443 -0.24042276 4.08718695 0 0 Z " fill="#CEB467" transform="translate(14,79)"/>
<path d="M0 0 C0.99 0 1.98 0 3 0 C2.34 2.97 1.68 5.94 1 9 C-1.64 9.33 -4.28 9.66 -7 10 C-6.34 8.68 -5.68 7.36 -5 6 C-3.68 6.33 -2.36 6.66 -1 7 C-0.67 4.69 -0.34 2.38 0 0 Z " fill="#E1C987" transform="translate(96,69)"/>
<path d="M0 0 C2.475 0.495 2.475 0.495 5 1 C5.39253254 5.44870215 4.15305957 8.14243493 2 12 C1.67 12 1.34 12 1 12 C0.01751476 7.9472484 -0.08159574 4.16138263 0 0 Z " fill="#D5B663" transform="translate(29,38)"/>
<path d="M0 0 C1.65 0 3.3 0 5 0 C5 5.94 5 11.88 5 18 C4.67 18 4.34 18 4 18 C3.67 13.05 3.34 8.1 3 3 C2.34 3 1.68 3 1 3 C1 5.31 1 7.62 1 10 C0.67 10 0.34 10 0 10 C0 6.7 0 3.4 0 0 Z " fill="#F6ECB7" transform="translate(82,30)"/>
<path d="M0 0 C1.45823212 -0.0270043 2.91660675 -0.04639787 4.375 -0.0625 C5.18710937 -0.07410156 5.99921875 -0.08570313 6.8359375 -0.09765625 C9 0 9 0 11 1 C11 1.99 11 2.98 11 4 C12.1446875 4.185625 12.1446875 4.185625 13.3125 4.375 C16 5 16 5 19 7 C12.0886636 6.52877252 6.27795839 3.79363994 0 1 C0 0.67 0 0.34 0 0 Z " fill="#4B5060" transform="translate(58,13)"/>
<path d="M0 0 C2.49361571 1.20381448 4.68143083 2.45428722 7 4 C7 4.99 7 5.98 7 7 C7.66 7 8.32 7 9 7 C9 7.66 9 8.32 9 9 C6.03 8.01 3.06 7.02 0 6 C0 4.02 0 2.04 0 0 Z " fill="#A68440" transform="translate(42,104)"/>
<path d="M0 0 C0.33 0.66 0.66 1.32 1 2 C-1.30147854 5.45221781 -2.23147391 5.62962688 -6 7 C-7.485 7.804375 -7.485 7.804375 -9 8.625 C-12.006678 10.00306075 -13.75064118 10.28670813 -17 10 C-16.67 9.34 -16.34 8.68 -16 8 C-15.44828125 7.86722656 -14.8965625 7.73445313 -14.328125 7.59765625 C-11.10384592 6.76994702 -8.60086166 5.14181947 -5.75 3.4375 C-4.67234375 2.79683594 -3.5946875 2.15617187 -2.484375 1.49609375 C-1.66453125 1.00238281 -0.8446875 0.50867188 0 0 Z " fill="#907743" transform="translate(66,100)"/>
<path d="M0 0 C3.465 1.485 3.465 1.485 7 3 C6.67 4.32 6.34 5.64 6 7 C3.69 6.67 1.38 6.34 -1 6 C-0.67 4.02 -0.34 2.04 0 0 Z " fill="#2F354F" transform="translate(55,6)"/>
<path d="M0 0 C6.4 -0.36923077 6.4 -0.36923077 9.4375 1.5 C9.953125 1.995 10.46875 2.49 11 3 C8.24921116 3.91692961 6.64051087 4.10886083 3.8125 4.0625 C1.9253125 4.0315625 1.9253125 4.0315625 0 4 C-0.33 3.34 -0.66 2.68 -1 2 C-0.67 1.34 -0.34 0.68 0 0 Z " fill="#C6A658" transform="translate(21,9)"/>
<path d="M0 0 C1.32 0 2.64 0 4 0 C7 3.21428571 7 3.21428571 7 6 C4.75 6.75 4.75 6.75 2 7 C-0.3125 5.0625 -0.3125 5.0625 -2 3 C-1.34 2.34 -0.68 1.68 0 1 C0 0.67 0 0.34 0 0 Z " fill="#DCD093" transform="translate(54,0)"/>
<path d="M0 0 C2 3 2 3 1.75 5.625 C1.5025 6.40875 1.255 7.1925 1 8 C0.01 8.495 0.01 8.495 -1 9 C-1.99 8.67 -2.98 8.34 -4 8 C-4.25 5.6875 -4.25 5.6875 -4 3 C-2 1.1875 -2 1.1875 0 0 Z " fill="#D6B768" transform="translate(58,80)"/>
<path d="M0 0 C-0.66 1.32 -1.32 2.64 -2 4 C-1.01 4.33 -0.02 4.66 1 5 C-2 7 -2 7 -5 8 C-5.66 5.69 -6.32 3.38 -7 1 C-3.375 -1.125 -3.375 -1.125 0 0 Z " fill="#E6DAA1" transform="translate(67,40)"/>
<path d="M0 0 C2 2 2 2 2.1953125 3.9453125 C2.13020833 5.96354167 2.06510417 7.98177083 2 10 C1.34 9.34 0.68 8.68 0 8 C-0.33 8.99 -0.66 9.98 -1 11 C-1.66 11 -2.32 11 -3 11 C-2.25 3.375 -2.25 3.375 0 0 Z " fill="#E7D590" transform="translate(98,46)"/>
<path d="M0 0 C3.66881155 0.70554068 6.70450534 2.27735506 10 4 C10 4.66 10 5.32 10 6 C6.0507432 5.44894091 2.65079826 4.61064629 -1 3 C-0.67 2.01 -0.34 1.02 0 0 Z " fill="#F7E8A7" transform="translate(62,17)"/>
<path d="M0 0 C0.66 0 1.32 0 2 0 C2 2.64 2 5.28 2 8 C-0.88575819 7.60196439 -1.82189513 7.20990931 -3.75 4.9375 C-4.1625 4.298125 -4.575 3.65875 -5 3 C-3.68 3 -2.36 3 -1 3 C-0.67 2.01 -0.34 1.02 0 0 Z " fill="#C7AC5F" transform="translate(32,80)"/>
<path d="M0 0 C3 1 3 1 6 3 C4.329375 3.12375 4.329375 3.12375 2.625 3.25 C-1.05753944 3.57873787 -1.05753944 3.57873787 -2.4375 6.0625 C-2.623125 6.701875 -2.80875 7.34125 -3 8 C-3.99 7.67 -4.98 7.34 -6 7 C-5.34 6.67 -4.68 6.34 -4 6 C-4 5.34 -4 4.68 -4 4 C-4.66 3.67 -5.32 3.34 -6 3 C-4.02 2.67 -2.04 2.34 0 2 C0 1.34 0 0.68 0 0 Z " fill="#384779" transform="translate(69,27)"/>
<path d="M0 0 C1.66870487 0.32297514 3.33465333 0.66013333 5 1 C8.32888939 1.38175337 11.66323675 1.69547986 15 2 C15 2.33 15 2.66 15 3 C14.00097656 3.04898437 13.00195312 3.09796875 11.97265625 3.1484375 C10.68230469 3.22320312 9.39195313 3.29796875 8.0625 3.375 C6.77472656 3.44460938 5.48695312 3.51421875 4.16015625 3.5859375 C3.11730469 3.72257813 2.07445312 3.85921875 1 4 C0.67 4.66 0.34 5.32 0 6 C-0.38218767 4.34385343 -0.71395102 2.67542976 -1 1 C-0.67 0.67 -0.34 0.34 0 0 Z " fill="#A17D3A" transform="translate(6,12)"/>
<path d="M0 0 C0.33 0 0.66 0 1 0 C1.33 2.97 1.66 5.94 2 9 C2.99 9 3.98 9 5 9 C5 8.01 5 7.02 5 6 C5.66 6 6.32 6 7 6 C6.875 7.8125 6.875 7.8125 6 10 C2.9375 11.75 2.9375 11.75 0 13 C0 8.71 0 4.42 0 0 Z " fill="#B19B63" transform="translate(54,88)"/>
<path d="M0 0 C0.33 0.66 0.66 1.32 1 2 C1.639375 2.144375 2.27875 2.28875 2.9375 2.4375 C5 3 5 3 7 6 C5.35 6.66 3.7 7.32 2 8 C1.566875 7.0409375 1.566875 7.0409375 1.125 6.0625 C0.17176549 3.84793921 0.17176549 3.84793921 -2 3 C-1.34 3 -0.68 3 0 3 C0 2.01 0 1.02 0 0 Z " fill="#DBC273" transform="translate(19,87)"/>
<path d="M0 0 C0 0.66 0 1.32 0 2 C-0.639375 2.12375 -1.27875 2.2475 -1.9375 2.375 C-2.618125 2.58125 -3.29875 2.7875 -4 3 C-4.33 3.66 -4.66 4.32 -5 5 C-7.97 5 -10.94 5 -14 5 C-13 3 -13 3 -10.56640625 2.1484375 C-9.57511719 1.89320312 -8.58382813 1.63796875 -7.5625 1.375 C-6.07943359 0.98441406 -6.07943359 0.98441406 -4.56640625 0.5859375 C-2 0 -2 0 0 0 Z " fill="#282C35" transform="translate(40,23)"/>
<path d="M0 0 C4.38889325 0.66498383 7.9811485 2.18757677 12 4 C11.67 4.99 11.34 5.98 11 7 C7.2089881 5.55049545 3.6125362 3.84827434 0 2 C0 1.34 0 0.68 0 0 Z " fill="#9F8C62" transform="translate(37,108)"/>
<path d="M0 0 C4.75 0.75 4.75 0.75 7 3 C7 3.99 7 4.98 7 6 C7.66 6.33 8.32 6.66 9 7 C7.35 7 5.7 7 4 7 C2.02 3.535 2.02 3.535 0 0 Z " fill="#EDD791" transform="translate(27,96)"/>
<path d="M0 0 C2.31 0.66 4.62 1.32 7 2 C5.35 3.65 3.7 5.3 2 7 C0 6 0 6 -2 3 C-1.34 2.01 -0.68 1.02 0 0 Z " fill="#B29C64" transform="translate(69,100)"/>
<path d="M0 0 C0.33 0 0.66 0 1 0 C1.0825 1.11375 1.165 2.2275 1.25 3.375 C1.57873787 7.05753944 1.57873787 7.05753944 4.0625 8.4375 C4.701875 8.623125 5.34125 8.80875 6 9 C4.71034824 10.37562854 3.37310707 11.70766393 2 13 C1.34 13 0.68 13 0 13 C0 8.71 0 4.42 0 0 Z " fill="#B2A16D" transform="translate(68,77)"/>
<path d="M0 0 C0.33 0 0.66 0 1 0 C1.33 3.3 1.66 6.6 2 10 C0.35 10 -1.3 10 -3 10 C-2.01 6.7 -1.02 3.4 0 0 Z " fill="#C4AD6C" transform="translate(93,66)"/>
<path d="M0 0 C-0.33 1.32 -0.66 2.64 -1 4 C-2.45922693 3.88590407 -3.91740598 3.75834456 -5.375 3.625 C-6.59316406 3.52058594 -6.59316406 3.52058594 -7.8359375 3.4140625 C-10 3 -10 3 -12 1 C-10.37681021 0.63762737 -8.7513642 0.28534843 -7.125 -0.0625 C-6.22007813 -0.25972656 -5.31515625 -0.45695312 -4.3828125 -0.66015625 C-2 -1 -2 -1 0 0 Z " fill="#393B4E" transform="translate(89,18)"/>
<path d="M0 0 C1.65 0.99 3.3 1.98 5 3 C3.92598892 5.91517292 3.22189824 7.77810176 1 10 C0.63883954 8.5225254 0.28624952 7.04295325 -0.0625 5.5625 C-0.25972656 4.73878906 -0.45695312 3.91507813 -0.66015625 3.06640625 C-0.82837891 2.04353516 -0.82837891 2.04353516 -1 1 C-0.67 0.67 -0.34 0.34 0 0 Z " fill="#EDD184" transform="translate(56,14)"/>
<path d="M0 0 C2.475 0.99 2.475 0.99 5 2 C5 3.65 5 5.3 5 7 C3.35 6.67 1.7 6.34 0 6 C0 4.02 0 2.04 0 0 Z " fill="#D9BB6C" transform="translate(69,78)"/>
<path d="M0 0 C3.72433382 1.2125738 7.37802806 2.50859979 11 4 C10.01 4.33 9.02 4.66 8 5 C7.67 5.66 7.34 6.32 7 7 C7 6.34 7 5.68 7 5 C4.525 4.01 4.525 4.01 2 3 C1.34 4.32 0.68 5.64 0 7 C0 4.69 0 2.38 0 0 Z " fill="#D1C696" transform="translate(54,12)"/>
<path d="M0 0 C0.66 0 1.32 0 2 0 C2 1.32 2 2.64 2 4 C2.66 4.33 3.32 4.66 4 5 C3.67 5.66 3.34 6.32 3 7 C1.35 6.67 -0.3 6.34 -2 6 C-1.125 1.125 -1.125 1.125 0 0 Z " fill="#BEA560" transform="translate(74,94)"/>
<path d="M0 0 C0.33 0 0.66 0 1 0 C1.08090971 1.62418745 1.13914995 3.24951745 1.1875 4.875 C1.22230469 5.77992187 1.25710937 6.68484375 1.29296875 7.6171875 C1.19628906 8.40351562 1.09960938 9.18984375 1 10 C0.01 10.66 -0.98 11.32 -2 12 C-1.85904936 10.3745692 -1.71207913 8.74965949 -1.5625 7.125 C-1.48128906 6.22007813 -1.40007813 5.31515625 -1.31640625 4.3828125 C-1 2 -1 2 0 0 Z " fill="#ECD584" transform="translate(58,58)"/>
<path d="M0 0 C2.00720923 0.28674418 4.0085944 0.61866701 6 1 C6.33 2.65 6.66 4.3 7 6 C6.01 6.495 6.01 6.495 5 7 C5 6.34 5 5.68 5 5 C4.38125 4.71125 3.7625 4.4225 3.125 4.125 C1 3 1 3 -1 1 C-0.67 0.67 -0.34 0.34 0 0 Z " fill="#30416E" transform="translate(72,27)"/>
<path d="M0 0 C3 0 3 0 5 1 C5 2.65 5 4.3 5 6 C4.01 6 3.02 6 2 6 C1.01 6.495 1.01 6.495 0 7 C0 4.69 0 2.38 0 0 Z " fill="#EBD28E" transform="translate(82,56)"/>
<path d="M0 0 C0.33 0 0.66 0 1 0 C1.33 3.96 1.66 7.92 2 12 C2.99 12.33 3.98 12.66 5 13 C1.125 16 1.125 16 0 16 C0 10.72 0 5.44 0 0 Z " fill="#E7E1B9" transform="translate(54,24)"/>
<path d="M0 0 C-1.93232821 0.86580287 -3.87107194 1.71729941 -5.8125 2.5625 C-6.89144531 3.03816406 -7.97039063 3.51382812 -9.08203125 4.00390625 C-12 5 -12 5 -15 4 C-13.02 3.34 -11.04 2.68 -9 2 C-9 1.34 -9 0.68 -9 0 C-5.5657338 -0.85856655 -3.38317487 -0.97591583 0 0 Z " fill="#CDBB82" transform="translate(52,4)"/>
<path d="M0 0 C1.56073255 2.34109882 2.86373867 4.56333403 4.125 7.0625 C4.47820313 7.75472656 4.83140625 8.44695312 5.1953125 9.16015625 C6 11 6 11 6 13 C4.125 12.4375 4.125 12.4375 2 11 C0.55760783 7.10554113 0 4.16477964 0 0 Z " fill="#33322E" transform="translate(15,64)"/>
<path d="M0 0 C0.99 0 1.98 0 3 0 C3 4.95 3 9.9 3 15 C2.67 15 2.34 15 2 15 C1.92652344 13.84371094 1.92652344 13.84371094 1.8515625 12.6640625 C1.77679688 11.66117188 1.70203125 10.65828125 1.625 9.625 C1.55539063 8.62726562 1.48578125 7.62953125 1.4140625 6.6015625 C1.23636036 3.84491121 1.23636036 3.84491121 -1 2 C-0.67 1.34 -0.34 0.68 0 0 Z " fill="#F9F0BE" transform="translate(71,36)"/>
<path d="M0 0 C0 2.83967231 -0.40267181 5.23735711 -1 8 C-2.32 8 -3.64 8 -5 8 C-5.33 7.01 -5.66 6.02 -6 5 C-5.34 4.67 -4.68 4.34 -4 4 C-4 3.34 -4 2.68 -4 2 C-2.68 1.34 -1.36 0.68 0 0 Z " fill="#EDE3B0" transform="translate(70,36)"/>
<path d="M0 0 C0.7425 0.0825 1.485 0.165 2.25 0.25 C1.92 1.24 1.59 2.23 1.25 3.25 C-1.39 3.58 -4.03 3.91 -6.75 4.25 C-3.42692308 0.31153846 -3.42692308 0.31153846 0 0 Z " fill="#A68234" transform="translate(63.75,104.75)"/>
<path d="M0 0 C0.66 0.33 1.32 0.66 2 1 C0.60667426 4.36720387 -0.9789286 5.9859524 -4 8 C-4 6.35 -4 4.7 -4 3 C-3.01 3 -2.02 3 -1 3 C-0.67 2.01 -0.34 1.02 0 0 Z " fill="#2E363E" transform="translate(80,85)"/>
<path d="M0 0 C1.32 0.33 2.64 0.66 4 1 C4.33 3.31 4.66 5.62 5 8 C2.5 5.6875 2.5 5.6875 0 3 C0 2.01 0 1.02 0 0 Z " fill="#CCA94C" transform="translate(7,71)"/>
<path d="M0 0 C0.33 0.99 0.66 1.98 1 3 C1.99 3 2.98 3 4 3 C3.67 4.32 3.34 5.64 3 7 C2.34 7 1.68 7 1 7 C0.67 7.99 0.34 8.98 0 10 C-0.74926071 6.33694766 -1.2380014 3.57644848 0 0 Z " fill="#232B46" transform="translate(52,37)"/>
<path d="M0 0 C0 2.31 0 4.62 0 7 C-1.32 7 -2.64 7 -4 7 C-4.1875 4.625 -4.1875 4.625 -4 2 C-1 0 -1 0 0 0 Z " fill="#25345A" transform="translate(66,48)"/>
<path d="M0 0 C0.99 0.33 1.98 0.66 3 1 C3 2.32 3 3.64 3 5 C-0.3 4.67 -3.6 4.34 -7 4 C-7 3.67 -7 3.34 -7 3 C-4.69 3 -2.38 3 0 3 C0 2.01 0 1.02 0 0 Z " fill="#E5D8A0" transform="translate(79,22)"/>
<path d="M0 0 C-1.8125 2 -1.8125 2 -4 4 C-4.99 4 -5.98 4 -7 4 C-7 2.68 -7 1.36 -7 0 C-3.98968256 -0.93423645 -3.13349732 -1.04449911 0 0 Z " fill="#D0AC57" transform="translate(32,21)"/>
<path d="M0 0 C3.0831351 1.19899698 6.06279492 2.47700477 9 4 C9 4.33 9 4.66 9 5 C6.1875 5.3125 6.1875 5.3125 3 5 C1.125 2.5 1.125 2.5 0 0 Z " fill="#F7EFC3" transform="translate(60,1)"/>
<path d="M0 0 C1.14926266 0.95421808 2.29430541 1.91352045 3.4375 2.875 C4.07558594 3.40867187 4.71367187 3.94234375 5.37109375 4.4921875 C7 6 7 6 8 8 C4.82461668 7.65978036 3.97723135 6.97533396 1.75 4.5625 C0 2 0 2 0 0 Z " fill="#312E33" transform="translate(26,83)"/>
<path d="M0 0 C0.99 0.66 1.98 1.32 3 2 C3 2.66 3 3.32 3 4 C3.66 4.33 4.32 4.66 5 5 C4 6 4 6 1.4375 6.0625 C0.2309375 6.0315625 0.2309375 6.0315625 -1 6 C-1.33 5.34 -1.66 4.68 -2 4 C-1.34 3.67 -0.68 3.34 0 3 C0 2.01 0 1.02 0 0 Z " fill="#D8BF76" transform="translate(34,99)"/>
<path d="M0 0 C1.32 0 2.64 0 4 0 C6.3125 2.3125 6.3125 2.3125 8 5 C7.67 5.99 7.34 6.98 7 8 C6.67 7.01 6.34 6.02 6 5 C5.01 4.67 4.02 4.34 3 4 C1.3125 1.9375 1.3125 1.9375 0 0 Z " fill="#CDC193" transform="translate(15,91)"/>
<path d="M0 0 C0.33 0 0.66 0 1 0 C1 1.65 1 3.3 1 5 C0.01 5 -0.98 5 -2 5 C-2.33 5.99 -2.66 6.98 -3 8 C-3.625 6.125 -3.625 6.125 -4 4 C-2.66666667 2.66666667 -1.33333333 1.33333333 0 0 Z " fill="#D4B361" transform="translate(98,64)"/>
<path d="M0 0 C0.66 0.33 1.32 0.66 2 1 C2 2.32 2 3.64 2 5 C1.01 5.495 1.01 5.495 0 6 C-1.13350534 8.01669827 -1.13350534 8.01669827 -2 10 C-2.08857895 6.81115797 -1.98002972 4.04898134 -1 1 C-0.67 0.67 -0.34 0.34 0 0 Z " fill="#F4DD97" transform="translate(60,43)"/>
<path d="M0 0 C1.98 0 3.96 0 6 0 C3.14693203 2.32472205 0.45925163 3.7508258 -3 5 C-3 4.01 -3 3.02 -3 2 C-2.01 2 -1.02 2 0 2 C0 1.34 0 0.68 0 0 Z " fill="#51556B" transform="translate(66,35)"/>
<path d="M0 0 C2.64 0 5.28 0 8 0 C8 0.66 8 1.32 8 2 C5.29120665 3.35439668 2.99066732 3.06501451 0 3 C0 2.01 0 1.02 0 0 Z " fill="#28345B" transform="translate(79,16)"/>
<path d="M0 0 C1.32 0.33 2.64 0.66 4 1 C4 1.66 4 2.32 4 3 C5.32 3.66 6.64 4.32 8 5 C8 5.99 8 6.98 8 8 C6.66372225 6.85760183 5.33104612 5.71098945 4 4.5625 C3.2575 3.92441406 2.515 3.28632812 1.75 2.62890625 C1.1725 2.09136719 0.595 1.55382812 0 1 C0 0.67 0 0.34 0 0 Z " fill="#3D3A34" transform="translate(25,91)"/>
<path d="M0 0 C1 2 1 2 0.375 4.5625 C-1 7 -1 7 -3.625 7.8125 C-4.40875 7.874375 -5.1925 7.93625 -6 8 C-4.02 5.36 -2.04 2.72 0 0 Z " fill="#CFC79C" transform="translate(88,79)"/>
<path d="M0 0 C3.60654039 2.40436026 3.85452932 3.94679607 5 8 C4.01 8 3.02 8 2 8 C0.74335022 5.09399739 0 3.20395416 0 0 Z " fill="#DAC593" transform="translate(5,72)"/>
<path d="M0 0 C0.33 0 0.66 0 1 0 C1 1.98 1 3.96 1 6 C-0.65 6 -2.3 6 -4 6 C-4 4.68 -4 3.36 -4 2 C-2.68 2.33 -1.36 2.66 0 3 C0 2.01 0 1.02 0 0 Z " fill="#F9EFB9" transform="translate(59,31)"/>
<path d="M0 0 C-2.85306797 2.32472205 -5.54074837 3.7508258 -9 5 C-6.81610567 0.16423399 -5.20641855 -0.13701101 0 0 Z " fill="#AD9D83" transform="translate(64,110)"/>
<path d="M0 0 C0.33 0.66 0.66 1.32 1 2 C-0.32 3.65 -1.64 5.3 -3 7 C-3.99 6.67 -4.98 6.34 -6 6 C-4.02 4.02 -2.04 2.04 0 0 Z " fill="#AFA56F" transform="translate(85,91)"/>
<path d="M0 0 C1.65 1.65 3.3 3.3 5 5 C4.01 5.495 4.01 5.495 3 6 C2.67 6.66 2.34 7.32 2 8 C2 7.34 2 6.68 2 6 C1.34 5.67 0.68 5.34 0 5 C0 3.35 0 1.7 0 0 Z " fill="#C2AB65" transform="translate(14,79)"/>
<path d="M0 0 C1.65 0 3.3 0 5 0 C5 0.99 5 1.98 5 3 C3.02 3 1.04 3 -1 3 C-0.67 2.01 -0.34 1.02 0 0 Z " fill="#F7EAA3" transform="translate(74,22)"/>
<path d="M0 0 C0.33 0.66 0.66 1.32 1 2 C1.99 1.67 2.98 1.34 4 1 C4 2.32 4 3.64 4 5 C2.68 5.33 1.36 5.66 0 6 C0 4.02 0 2.04 0 0 Z " fill="#F3DD9C" transform="translate(95,18)"/>
<path d="M0 0 C1.32 0 2.64 0 4 0 C4.66 1.32 5.32 2.64 6 4 C4.02 4 2.04 4 0 4 C0 2.68 0 1.36 0 0 Z " fill="#EFD993" transform="translate(54,0)"/>
</svg>
